<?xml version="1.0" encoding="utf-8"?>
<!-- Custom version: White ship with orange S&P letters -->
<svg version="1.1" xmlns="http://www.w3.org/2000/svg" xmlns:xlink="http://www.w3.org/1999/xlink" x="0px" y="0px"
	 viewBox="0 0 1024 1024" style="enable-background:new 0 0 1024 1024;" xml:space="preserve">
<style type="text/css">
	.ship-white{fill:#FFFFFF;}
	.letters-orange{fill:#FF8A28;}
</style>
<g>
	<g>
		<path class="ship-white" d="M726.7,649c8.2-15.2,8.3-22,8.3-21.7c0,0.3,111.3-85.1,115.8-89.2c4.4-4.1,2.8-9.3,0.7-11.7
			c-2.1-2.3-6.3-0.8-11.9,2s-108.4,71.2-133.1,85.7s-32.3,15.5-37.5,17.3c-5.2,1.8-120.1,16.5-180.1,22.3c0,0,0,0-0.1,0
			c0-9.6,0-41,0-61.4c3.3-0.2,6.6-0.4,9.8-0.6c66.4-3.6,112.3,11.4,147.3,36.4c0,0,16.8-15.5,28.5-41.7s11.5-36.7,11.5-36.7
			s7.7,25.7,9,50c0,0,23.3-22,51.7-37.7c28.3-15.7,53.5-14.2,53.5-14.2s2.3,0.1,0.6-3.4s-45.2-56.1-69.6-85
			c-24.4-28.9-89.6-77.6-112.4-91.6c0,0,28.7-46.7-12.3-88.7c0,0,4.9-10.2-3.4-11.6c-3.2-0.5-33.6-3.3-70.2-6.6c0-0.1,0-0.1,0-0.2
			v-89.7c0-4.8-3.9-8.8-8.8-8.8c-4.8,0-8.8,3.9-8.8,8.8v11.6c-5.4,3.4-20.2,11.2-43.5,13.9c-30,3.5-51.7-1.3-51.7-1.3
			s7.2,20.8,48.8,30.3c23.1,5.3,37.9,6,46.4,5.7v28.1C459,254.5,396.7,249,396.7,249s-9-0.7-5.8,4.3c3.2,5,26.5,14.9,26.9,58
			c0.4,43.1-19.1,58.7-25.3,62.7l9.1-23.3c0,0,1.5-2.7-1.9-3.3c-1.3-0.2-14.2-1.5-30-2.9v-17.9c0,0,0.4-10.6-3.6-15.2
			c-4-4.7-7.2-5.1-11.7-5.2c-4.4-0.1-6.2,1.4-3.9,6.4c2.3,5,2.9,9.2,2.9,9.2V343c-22.9-2.1-45.7-4.1-45.7-4.1s-4.1-0.8-4.2,3.2
			c-0.1,4,6.9,8.7,11.8,29.3c4.9,20.7-3.1,63.7-25.1,91.2l46.9,8.2c0,0,7.1-49.3,7.6-73.8c0,0,32.9,93.6-39,185.6
			c0,0-22.9,47.9-11.6,97.9c0,0-121.6,8.9-143.7,9.7c-22.1,0.8-25.7,2.7-25.7,7.4s5.7,8.9,11.3,8.9s143.7-8.2,143.7-8.2
			c8.8,41.9,56.8,71.1,56.8,71.1s30.4,15.5,84.9,23s126.3,4.9,126.3,4.9s61.7,0.2,118.9-12c57.2-12.2,91.6-34.3,91.6-34.3
			s37.9-21.8,48.3-67.9c0,0,97.3,8.2,119.4,9.5c22.1,1.4,26.9,2.1,28.5-3.4s-1.6-9.3-7.4-9.3s-127.7-12.4-134.1-13.5
			C777.3,666.2,740.1,645.2,726.7,649z"/>
		<path class="ship-white" d="M509.3,750.4c-3.3,0-50.8,3.3-106.1-3.3c-42.6-5.1-72.8-16.4-72.8-16.4s-39.3-23.8-46.9-60.1
			c0,0,118.1-9.3,220.7-13.1c0,0,4.4,0.3,7.4,0.3c3,0,7.4-0.3,7.4-0.3c102.7,3.8,220.7,13.1,220.7,13.1
			c-7.7,36.3-46.9,60.1-46.9,60.1s-30.1,11.3-72.8,16.4c-55.4,6.6-102.8,3.3-106.1,3.3C511.6,750.4,511.6,750.4,509.3,750.4z"/>
	</g>
	<g>
		<path class="letters-orange" d="M433.3,436.6c0,0-3.3,16.4-21.3,25.7c0,0-8.5,5.5-25.2,6.6c0,0-11.5,0.5-24.1-2.7c0,0-8.5-2.2-10.1-6.6
			c0,0-1.6-2.7,0.5-4.9c0,0,2.2-2.7,9.6-1.1c7.4,1.6,21.3,3.8,32.3,1.6c0,0,15.3-2.7,21.9-13.1L433.3,436.6z"/>
		<path class="letters-orange" d="M615.2,442.1c0,0-6.6,14.2-20.2,20.8c0,0-11,6-30.1,4.9c0,0-13.1-0.5-21.9-5.5c0,0-6.6-3.3-6.6-6.6
			c0,0,0-3.8,4.4-4.4c0,0,4.4-1.6,10.1,3.3c5.7,4.9,15.3,8.2,26.3,7.7c0,0,16.4-1.1,26.3-13.1L615.2,442.1z"/>
	</g>
</g>
</svg>
