<?xml version="1.0" encoding="utf-8"?>
<!-- Generator: Adobe Illustrator 24.3.0, SVG Export Plug-In . SVG Version: 6.00 Build 0)  -->
<svg version="1.1" xmlns="http://www.w3.org/2000/svg" xmlns:xlink="http://www.w3.org/1999/xlink" x="0px" y="0px"
	 viewBox="0 0 1024 1024" style="enable-background:new 0 0 1024 1024;" xml:space="preserve">
<style type="text/css">
	.st0{fill:#FFFFF9;}
	.st1{fill:#00589D;}
	.st2{fill:#00589E;}
	.st3{fill:#F56B0D;}
</style>
<g id="Layer_1">
	<rect x="0" class="st0" width="1024" height="1024"/>
</g>
<g id="Layer_2">
	<g>
		<g>
			<path class="st1" d="M565.7,595.2c-26.2-8.3-47.8,5-71.2,10.3c-23.3,5.3-36.5-3.1-57.1-9.1s-48.4,3.8-69.5,12.4
				c-21.1,8.7-45.9,7.7-45.9,7.7s12.7,10.2,42.5,7.1s42-11.8,66.5-8.2c24.5,3.7,34,15.3,67,6.7c33-8.7,45.3-13.1,69.8-8
				s59.4,15.6,73.1,1C618.3,616.5,591.8,603.5,565.7,595.2z"/>
			<path class="st1" d="M776.9,389.8c-1.8-1.1-4.3-2.6-9,0c-4.7,2.6-134.6,79.1-134.6,79.1s-36.7,9-79.8,12.5
				c-15,1.2-39.3,3.3-64.5,5.5v-53c68.1,0.5,104.4,21.6,107.9,30.7c0,0,10.8-5.4,23.6-30.8c12.8-25.3,10.7-52.3,10.7-52.3
				s2.7,10.7,5.6,30c2.9,19.3,3.2,27.7,3.2,27.7s17.8-19.8,42.2-26.8s46-4.4,46-4.4s-33.8-43.1-86.2-94.9
				c-52.4-51.8-84.9-62.9-84.9-62.9s10.9-26.3,4.9-45.7c-6-19.3-18.8-27.2-18.8-27.2s4.7-4.7-3-6.8c-3-0.8-25.3-3.6-51.4-6.5v-63.1
				c0-2.9-2.4-5.3-5.3-5.3c-2.9,0-5.3,2.4-5.3,5.3v8.4c-3.6,1.4-11.9,4.3-25.8,7.9c-19.6,5.1-38.4,2.6-38.4,2.6s10.8,15.2,37.8,19.1
				c13.9,2,22,2.3,26.4,2v21.9c-38.3-4.3-80-8.8-80-8.8s-2.7-0.4-3.2,1.9c-0.5,2.3,3.3,3.2,8,9.3c4.7,6.1,29.8,46.7-9.2,88.4
				l6.3-18.1l-30.2-3.6c0-6.7,0-20.5,0-25.1c0-6.1-6.1-6.4-8.6-6.3c-2.4,0.1-2.1,2-2.1,2v2.8v25.4l-40.8-4.8c0,0-4.1-0.2-2.1,3.2
				s12.4,28.6,7.3,50.9c-5.2,22.3-17.3,39.7-17.3,39.7s-3.5,4.2,1.2,5.2c4.7,1,39.2,5.4,39.2,5.4s6.3-29.9-0.3-61.2
				c0,0,14.9,25.6,8.2,73.8c-6.7,48.2-42.7,83.8-42.7,83.8s28.3-33.8,33.8-89.6l-37.9-6.7c0,0,2.6,38.2-13.9,69.3
				c-16.4,31.1-31.8,48.9-31.8,48.9s-4.3,5.2,2,5c6.3-0.2,38.9-0.2,55.3,1.9c16.4,2.1,25.4,4.9,25.4,4.9s5.8-2.3,15.9-5.5v27.8
				l-81.7,2.9c0,0-0.4,7.3,3,22.7c3.4,15.3,17.7,20.3,17.7,20.3s-2,11.7,9,32.2s34.3,31.2,34.3,31.2s-3.2-0.2-11.4-1.7
				c-8.2-1.4-22.8-8.1-47.4-0.4c-24.7,7.7-40.3,2.6-40.3,2.6c11.3,14.4,28.1,13.7,46.1,11.6c18-2.1,27.2,5.1,49.7,3.8
				c22.4-1.3,45.3-17.3,71.9-22.7c26.7-5.3,30.2,7.5,60.2,11.3s45.4-15.1,72.3-14.9c26.9,0.2,49.8,14.2,63.8,19.2s25.2,5.8,39.5,3.2
				c14.3-2.7,17,1,32.5,1.5s30.8-12.8,30.8-12.8s-8.5,1.7-19.8,2c-11.3,0.3-14.3-0.7-26.7-6c-12.3-5.3-37.2,1.7-37.2,1.7
				c6-45.2,23-83.3,23-83.3s6.2-1.8,16.2-12.7c10-10.8,15.5-30.7,15.5-30.7s88.4-64.2,91.7-66.6S778.7,390.9,776.9,389.8z
				 M489.6,236c0.1,0,0.1,0,0.2,0c39.6,3.6,74.7,33.1,74.7,33.1l-74.9-7.2V236z M477.3,235.4v25.3L408,254
				C419.9,245.3,444.2,235,477.3,235.4z M467.1,434.3c3.1-0.2,6.3-0.3,9.4-0.4v54c-6.1,0.5-12.1,1-18,1.6L467.1,434.3z M451.1,490.1
				c-4.7,0.4-9.3,0.8-13.8,1.2c3.8-17.8,11.2-45.3,14-55.7c3.1-0.3,6.1-0.6,9.2-0.8C456.7,452.3,452.6,479.5,451.1,490.1z
				 M371.7,451.2c18.1-5.2,43.8-11.5,72.8-14.9c-5.6,16-11.4,43-13.9,55.6c-22.8,2-39.2,3.4-39.2,3.4l-0.1-14.1l-19.6,0.7V451.2z
				 M371.7,569.8l-18,1.3v-18.6l18-1.1V569.8z M426.1,566l-18.2,1.3v-18.1l18.2-1.1V566z M476.5,562.4l-18.1,1.3V546l18.1-1.1V562.4
				z M526.7,558.9l-18.2,1.3v-17.3l18.2-1.1V558.9z M587,516.1c-122.1,20.5-254.7,21.2-271.1,21.2c-1,0-1.6,0-1.7,0l0-7
				c1.4,0,144.2,0.6,274-21.5L587,516.1z"/>
		</g>
		<g>
			<path class="st2" d="M235.8,789.4h-11.4v-6.7h30.9v6.7h-11.4v28.8h-8.2V789.4z"/>
			<path class="st2" d="M292.9,818.2l-6.8-9.9h-0.4h-7.1v9.9h-8.2v-35.5h15.4c9.5,0,15.4,4.9,15.4,12.9c0,5.3-2.7,9.2-7.3,11.2
				l8,11.4H292.9z M285.2,789.4h-6.7v12.4h6.7c5,0,7.6-2.3,7.6-6.2C292.7,791.6,290.2,789.4,285.2,789.4z"/>
			<path class="st2" d="M318,782.7h8.2v35.5H318V782.7z"/>
			<path class="st2" d="M368.4,810.6H352l-3.1,7.6h-8.4l15.8-35.5h8.1l15.9,35.5h-8.6L368.4,810.6z M365.8,804.3l-5.6-13.6
				l-5.6,13.6H365.8z"/>
			<path class="st2" d="M394.3,782.7h8.2v28.8h17.8v6.7h-26V782.7z"/>
			<path class="st2" d="M460.2,782.7h8.2v28.8h17.8v6.7h-26V782.7z"/>
			<path class="st2" d="M525,810.6h-16.5l-3.1,7.6h-8.4l15.8-35.5h8.1l15.9,35.5h-8.6L525,810.6z M522.4,804.3l-5.6-13.6l-5.6,13.6
				H522.4z"/>
			<path class="st2" d="M597.1,782.7l-10.9,35.5H578l-7.3-24.1l-7.5,24.1H555l-10.9-35.5h8l7.5,25l7.8-25h7.1l7.6,25.2l7.7-25.2
				H597.1z"/>
			<path class="st2" d="M632,805.6v12.6h-8.2v-12.7l-13.7-22.8h8.7l9.5,15.8l9.5-15.8h8.1L632,805.6z"/>
			<path class="st2" d="M688.9,811.6v6.6h-27.5v-35.5h26.8v6.6h-18.7v7.7h16.5v6.4h-16.5v8.2H688.9z"/>
			<path class="st2" d="M728.5,818.2l-6.8-9.9h-0.4h-7.1v9.9h-8.2v-35.5h15.4c9.5,0,15.4,4.9,15.4,12.9c0,5.3-2.7,9.2-7.3,11.2
				l8,11.4H728.5z M720.8,789.4h-6.7v12.4h6.7c5,0,7.6-2.3,7.6-6.2C728.4,791.6,725.9,789.4,720.8,789.4z"/>
			<path class="st2" d="M750.8,814.7l2.8-6.2c3,2.2,7.5,3.7,11.7,3.7c4.9,0,6.8-1.6,6.8-3.8c0-6.7-20.6-2.1-20.6-15.3
				c0-6,4.9-11.1,15-11.1c4.5,0,9,1.1,12.3,3.1l-2.5,6.2c-3.3-1.9-6.7-2.8-9.8-2.8c-4.9,0-6.7,1.8-6.7,4.1c0,6.5,20.6,2,20.6,15.1
				c0,5.9-4.9,11-15.1,11C759.7,818.8,754,817.1,750.8,814.7z"/>
			<g>
				<g>
					<path class="st3" d="M161,719.1h3.9c1.9,14.7,11.8,23.5,24.8,23.5c10.7,0,16.7-4.7,16.7-14.1c0-6.9-3.5-11-13.5-16.2l-13.2-6.6
						c-11.6-6-17.3-13-17.3-24.7c0-14.4,10.5-25.2,25.2-25.2c7.2,0,13.1,2.4,18.8,7.4l2.4-5.6h2.5l1,24.8h-3.9
						c-3.4-13-10.5-19.8-20.3-19.8c-7.6,0-13.5,4.5-13.5,12c0,7.8,4.8,11.5,15.9,17l9.6,5c12.6,6.3,19.3,14.1,19.3,26.2
						c0,16.2-13,26.6-29,26.6c-9.6,0-17-3.6-22.7-8.4l-2.6,6.6h-2.5L161,719.1z"/>
				</g>
			</g>
			<path class="st3" d="M293.7,716.8c0,19.1-13.8,32.6-31.8,32.6c-17.9,0-31.5-13.4-31.5-32.6c0-18.3,13.6-31.5,31.5-31.5
				C279.8,685.3,293.7,698.6,293.7,716.8z M245.8,716.9c0,15.9,5.9,25.8,16,25.8c10.2,0,16.5-10,16.5-25.8c0-15-6.4-25.4-16.5-25.4
				S245.8,701.7,245.8,716.9z"/>
			<path class="st3" d="M321.4,729c0,11.6,1.1,12.7,10.5,12.9v4.3h-32.1V742c8-0.5,8.9-1.8,8.9-12.8v-13.3c0-19.1-0.8-20.6-9.2-20.6
				v-3.8l19.5-4.2l1.5,12.9h0.3c3.7-8.1,10.5-13.5,17.2-13.5c5.2,0,8.2,3.1,8.2,7.2c0,4.9-2.8,8.1-6.6,8.1c-4.3,0-6-4.5-9.7-4.5
				c-4.9,0-8.4,9-8.4,24.4V729z"/>
			<path class="st3" d="M373.6,728.3c0,11.7,1.3,13.3,9.5,13.7v4.3h-32.7V742c8.2-0.4,9.7-2.5,9.7-12.9v-13.9
				c0-8.6-0.2-14.2-0.7-16.2c-0.7-3.6-2.6-4.4-9.2-4.4v-3.8l23.5-4.3V728.3z M365.5,655.6c5,0,8.9,4,8.9,9.3c0,5-3.9,9.2-8.9,9.2
				c-4.9,0-8.7-4.2-8.7-9.2C356.8,659.6,360.6,655.6,365.5,655.6z"/>
			<path class="st3" d="M410.9,696.7c4.9-6.8,12-10.2,20.2-10.2c13,0,21.8,7.1,21.8,25.2v16.7c0,11.9,0.8,13.1,9.1,13.6v4.3h-31.8
				V742c7.7-0.4,8.9-1.8,8.9-12.9v-15.5c0-15.1-3.9-20.5-12.4-20.5c-9,0-14.2,6.7-14.1,19.6v15.6c-0.1,12,0.6,13.1,8.6,13.6v4.3h-32
				v-4.2c8.3-0.6,9.4-1.8,9.5-12.9v-14.3c-0.1-8.6-0.4-14.2-0.7-16.1c-0.9-3.9-2.6-4.5-9.1-4.5v-3.6l20.3-4.3l1.4,10.2H410.9z"/>
			<g>
				<g>
					<path class="st3" d="M640.4,708.3h-8.5v20.2c0,11.8,2.1,13.9,15.3,13.9v4.5h-41.6v-4.5c10-0.4,11.7-2.4,11.7-13.3v-53.1
						c0-10.8-1.5-12.8-10.6-13.2v-4.6h35.7c21.8,0,33.3,8.6,33.3,23.9C675.8,697.8,664.8,708.3,640.4,708.3z M631.9,701.8h6.8
						c13.9,0,20.9-6.2,20.9-18.9s-5.7-18.8-18-18.8h-7.9c-1.2,0-1.9,0.9-1.9,2V701.8z"/>
				</g>
			</g>
			<g>
				<g>
					<path class="st3" d="M539.1,725.1c6.1-8.2,9.9-15.3,9.9-18.5c0-2.1-1.6-3-5.7-3v-3.8h21.4v3.8c-5.3,0-7.4,1.5-10.2,5.8
						l-12.4,20.1c5.6,7.7,10.4,10.8,15.2,10.8c3.1,0,5.4-1.1,7.3-5.2l2.3,0.7c-1.6,7.6-7.6,12.7-15.2,12.7c-7,0-12.1-2.6-18-10.1
						c-6.5,6.1-14.3,10.1-22.9,10.1c-11.5,0-18.9-7.1-18.9-18.4c0-9.4,5-17.1,19-24.1c-4.2-6.6-6.4-12.8-6.4-19.4
						c0-10.2,7.7-18.4,19.1-18.4c9.5,0,16.2,7,16.2,16.5c0,7.8-4.2,14.3-15,20.4L539.1,725.1z M514.6,711.2
						c-5.8,4.3-9.5,9.5-9.5,16.1c0,8.4,5,13.3,11.2,13.3c4.7,0,10.3-2.2,14.7-6.1L514.6,711.2z M530,683.8c0-5.6-2.2-9.3-6.5-9.3
						s-7.1,3.4-7.1,9.7c0,5.4,1.8,10.9,5.2,16C527.3,695,530,689.5,530,683.8z"/>
				</g>
			</g>
			<g>
				<g>
					<path class="st3" d="M687.8,770.3c0-4,2.5-6.7,8.6-7.7c6.1-1.1,9.9-1.2,12.1-6.6l3.1-6.9l-19.9-48.3
						c-3.6-8.7-4.9-9.9-10.3-10.3v-4.3H712v4.3c-5.2,0-7.3,1-7.3,4.1c0,1.6,0.8,4.2,2,7.7l10.9,30h0.8l8.3-21.9
						c3.4-8.2,4.8-13,4.8-15.7c0-3.5-2.5-4.1-7.9-4.1v-4.3H748v4.3c-5.4,0-7.2,2.1-14.1,19.2l-22,55c-3.5,8.8-9.7,12.6-16.1,12.6
						C690.9,777.3,687.8,774.5,687.8,770.3z"/>
				</g>
			</g>
			<path class="st3" d="M772.5,653.7v75.2c0.1,11.6,1.1,13.3,9.2,13.6v4.3h-31.9v-4.3c8-0.4,9.5-2.4,9.5-12.8v-47.5
				c0-8.3-0.3-14-0.8-16.1c-0.8-3.5-2.7-4.3-9-4.3v-3.9L772.5,653.7z"/>
			<path class="st3" d="M819,706.6c5.8,0,6.8-0.4,6.8-3.1c0-6.7-3.3-11.4-9.9-11.4c-8.4,0-14.2,7.1-14.2,24
				c0,16.1,5.4,25.1,16.8,25.1c6.6,0,12.1-2.7,17.4-7.6l2.9,3.6c-5.6,6.8-14,10.6-23.4,10.6c-17.4,0-28.6-11-28.6-30.3
				c0-19.1,11.7-31.3,29.7-31.3c14.9,0,22.9,8.6,22.9,23.6c0,2.3-0.4,2.7-3.4,2.7h-38.3l0.3-5.8H819z"/>
		</g>
		<g>
			<path class="st3" d="M445.2,346.2c-7.8-4.3-13.7-7.1-21.1-13c-7.4-5.9-6.4-17.4,0-22c6.7-4.8,17.6-4.4,23.5,1.3
				c5.8,5.7,5.5,16.2,5.5,16.2h4.4l-0.1-22c-10.9-7.1-28.9-7.6-38.6-2c-7.9,4.6-16,15-13.2,29.3c2.8,14.2,16.2,20.5,23,23.6
				c6.8,3.1,12.9,6.5,17.1,10.7c4.2,4.1,5.7,15.7-1.1,22.1c-6.8,6.4-20.4,5.3-28.4-0.4c-8-5.7-7.8-21-7.8-21h-4.9v25.6
				c5.3,4.1,20,9.5,35.1,6.6c15.1-3,23.9-13.3,23.9-28.9C462.4,356.5,453,350.5,445.2,346.2z"/>
			<path class="st3" d="M525.2,378.8c0,0-4.6,3.6-8.7,0c-1.3-1.1-3.8-3.9-6.8-7.3c1.7-2.1,3.1-4.1,4.3-5.9c4.5-6.8,5.9-10,8.1-12.1
				c2.3-2.1,6-1.8,6-1.8v-3.7h-23.5v4.2h6.3c0,0,1.5,0,2.3,1.5c0.8,1.5,0.2,3.9-1,6c-0.9,1.7-2.3,4.2-5.3,8.5
				c-5.5-6.7-11.8-14.7-14.8-19.4c2.2-1.6,8.7-6.7,11.2-10.4c3-4.5,3.1-13.4-2-17.3c-5-3.9-12.6-3.7-18.4,1.1
				c-5.8,4.8-8.2,11-6.5,18.2c0.7,3,2.9,6.9,5.1,10.4c-0.4,0.3-0.9,0.5-1.3,0.8c-4.6,2.7-14.4,10.8-11.4,24.1
				c2.9,13.3,16.9,16,24.5,11.5c3.3-1.9,6.9-4.8,10.1-8.1c1.9,2.3,3.4,4,4.3,4.8c3.8,3.5,10.3,4.9,14.7,2.6c3.7-1.8,6.3-5.2,6.3-5.2
				v-2.4H525.2z M486.1,327.3c2.6-6.8,9-5.8,11.4-2.1c2.4,3.7,1.2,11.3-2.6,15.3c-1.4,1.5-3.2,3-5.1,4.4
				C486.4,338.9,483.8,333.4,486.1,327.3z M487.8,380.5c-8.9-1.1-13.1-11.6-9.8-18.8c1.8-3.9,3.9-6.1,5.8-7.8
				c2.3,3.3,4.1,5.5,4.1,5.5s7,9.1,12.9,16.3C499.7,376.9,495.5,381.4,487.8,380.5z"/>
			<path class="st3" d="M554.3,372.7v-12c2.7,0,6.4,0,11.2,0c13.8,0,32.5-6.2,32.8-31c0.1-12-6.4-19.1-13.2-22.7
				c-7.2-3.8-14.8-3.5-14.8-3.5H526v6.5h5.2c0,0,7-0.1,7,7.8s0,61.5,0,61.5v6.7c0,8.1-7.2,8.6-7.2,8.6h-5v5.4H544h5.2h19.1v-5.3
				h-5.5c0,0-8.6-0.4-8.6-8.8v-6V372.7z M564.7,310.5c0,0,13.1,0.1,16.3,14.5c3.2,14.3-3.6,28.8-15.5,28.8c-5.3,0-8.8,0-11.2,0
				v-43.2H564.7z"/>
		</g>
	</g>
</g>
</svg>
