<?xml version="1.0" encoding="utf-8"?>
<!-- Generator: Adobe Illustrator 24.3.0, SVG Export Plug-In . SVG Version: 6.00 Build 0)  -->
<svg version="1.1" id="Layer_3" xmlns="http://www.w3.org/2000/svg" xmlns:xlink="http://www.w3.org/1999/xlink" x="0px" y="0px"
	 viewBox="0 0 1024 1024" style="enable-background:new 0 0 1024 1024;" xml:space="preserve">
<style type="text/css">
	.st0{fill:#0060A5;}
	.st1{fill:#F25700;}
</style>
<g>
	<g>
		<path class="st0" d="M726.7,649c8.2-15.2,8.3-22,8.3-21.7c0,0.3,111.3-85.1,115.8-89.2c4.4-4.1,2.8-9.3,0.7-11.7
			c-2.1-2.3-6.3-0.8-11.9,2s-108.4,71.2-133.1,85.7s-32.3,15.5-37.5,17.3c-5.2,1.8-120.1,16.5-180.1,22.3c0,0,0,0-0.1,0
			c0-9.6,0-41,0-61.4c3.3-0.2,6.6-0.4,9.8-0.6c66.4-3.6,112.3,11.4,147.3,36.4c0,0,16.8-15.5,28.5-41.7s11.5-36.7,11.5-36.7
			s7.7,25.7,9,50c0,0,23.3-22,51.7-37.7c28.3-15.7,53.5-14.2,53.5-14.2s2.3,0.1,0.6-3.4s-45.2-56.1-69.6-85
			c-24.4-28.9-89.6-77.6-112.4-91.6c0,0,28.7-46.7-12.3-88.7c0,0,4.9-10.2-3.4-11.6c-3.2-0.5-33.6-3.3-70.2-6.6c0-0.1,0-0.1,0-0.2
			v-89.7c0-4.8-3.9-8.8-8.8-8.8c-4.8,0-8.8,3.9-8.8,8.8v11.6c-5.4,3.4-20.2,11.2-43.5,13.9c-30,3.5-51.7-1.3-51.7-1.3
			s7.2,20.8,48.8,30.3c23.1,5.3,37.9,6,46.4,5.7v28.1C459,254.5,396.7,249,396.7,249s-9-0.7-5.8,4.3c3.2,5,26.5,14.9,26.9,58
			c0.4,43.1-19.1,58.7-25.3,62.7l9.1-23.3c0,0,1.5-2.7-1.9-3.3c-1.3-0.2-14.2-1.5-30-2.9v-17.9c0,0,0.4-10.6-3.6-15.2
			c-4-4.7-7.2-5.1-11.7-5.2c-4.4-0.1-6.2,1.4-3.9,6.4c2.3,5,2.9,9.2,2.9,9.2V343c-22.9-2.1-45.7-4.1-45.7-4.1s-4.1-0.8-4.2,3.2
			c-0.1,4,6.9,8.7,11.8,29.3c4.9,20.7-3.1,63.7-25.1,91.2l46.9,8.2c0,0,7.1-49.3,7.6-73.8c0,0,32.9,93.6-39,185.6
			c20.3-47.3,30.8-101.5,30.8-101.5l-42.8-8c0,0-0.3,29.2-14.2,66.2S243,597.7,240,603.2s-0.5,5.7,11.2,5.3
			c11.2-0.3,85.4,2.8,96.9,3v30.1l-86.7,0.3c0,0-1.6,24.3,5.4,38.9S287,700,287,700s-4.2,22.7,11.1,43.6
			c15.3,20.9,31.3,30.9,31.3,30.9s-21.8-7.6-38.9-5.1c-17.2,2.5-37.4,12.1-64.3,7.6c0,0,8.4,19.1,36.2,17.3s31.1-7.1,49.6-3.8
			c18.4,3.3,36.9,8.7,64.4-3.6s57.8-21.3,88.4-16.4c30.7,4.9,57.6,14.4,87.3,3.6c29.8-10.9,46.1-14.3,72.1-7
			c26,7.3,43.8,18.8,77,23.3c33.2,4.5,58.5-2.5,67.5-13.5c0,0-14.8,4.3-32,0c-17.2-4.3-28-8.3-38.7-7.8c-10.7,0.5-27.8,4.2-27.8,4.2
			s20.3-77.2,28.3-99.2C698.7,674,718.4,664.2,726.7,649z M520.1,351.3c60.3,4,97.7,39.6,97.7,39.6l-202.4-18.4
			C415.3,372.4,449.3,346.7,520.1,351.3z M475.2,593.4v61.6c-7.3,0.7-14.1,1.3-20.6,1.9l8.6-62.4
			C467.1,594.2,471.1,593.8,475.2,593.4z M364.3,609.7c0.5-0.1,0.8-0.2,0.8-0.2s39.6-8.4,88.1-13.9c-3.1,21.5-7.8,53.7-9,62.2
			c-33.9,2.9-54.3,4.2-54.3,4.2v-20.6l-25.7,0.1V609.7z M375.2,754l-23.6,1.7V732l23.6-1.5V754z M417.3,751v-23.3l23-1.5
			c0,3.6,0,16.6,0,23.1L417.3,751z M506.5,744.6l-22.6,1.6v-22.9l22.6-1.5V744.6z M571,740l-22.4,1.6v-22.5l22.4-1.5V740z
			 M613.5,691.8c-6.9,0.9-114.3,10.1-144.7,12.2c-30.3,2.2-138.4,6-163.2,6.9v-8.6c0,0,94.3-3.5,137.3-5.7c43-2.2,177-15.5,177-15.5
			v5.8C620,687,620.4,690.8,613.5,691.8z"/>
		<path class="st0" d="M620,783.6c-25.6-6-39.8-2.2-71.1,6.7c-31.3,8.9-48.2-0.2-80.4-5.3c-32.2-5.1-64.2,5.6-91.8,16
			c-27.6,10.4-49.1,8.4-49.1,8.4s14.1,15,52.1,10.8c38-4.2,53.7-19,90.2-12s51.3,15.7,78.5,7.8c27.2-7.8,42.3-16,74.8-10.7
			c32.4,5.3,61.3,13.3,78.9-5C670,803.7,645.6,789.6,620,783.6z"/>
	</g>
	<g>
		<path class="st1" d="M456.4,482.5c-10.3-5.8-18.1-9.6-28-17.7c-9.9-8.1-8.4-23.6,0-29.9c8.9-6.6,23.3-5.9,31.1,1.8
			c7.7,7.7,7.3,22,7.3,22h5.8l-0.2-29.9c-14.4-9.6-38.3-10.3-51.1-2.7c-10.5,6.2-21.2,20.4-17.5,39.7c3.7,19.3,21.5,27.8,30.5,32
			c9.1,4.2,17.2,8.8,22.7,14.5c5.5,5.6,7.6,21.3-1.5,30c-9.1,8.7-27.1,7.2-37.6-0.6c-10.6-7.8-10.4-28.5-10.4-28.5H401v34.7
			c7,5.5,26.6,13,46.5,8.9c20-4,31.7-18,31.7-39.2C479.1,496.5,466.6,488.4,456.4,482.5z"/>
		<path class="st1" d="M562.3,527.3c0,0-6,4.7-11.6,0c-1.7-1.4-5-5-9-9.6c2.2-2.7,4.2-5.4,5.7-7.8c6-9,7.8-13.1,10.8-15.9
			c3-2.8,7.9-2.3,7.9-2.3v-4.9H535v5.5h8.4c0,0,2,0,3,1.9c1.1,2,0.2,5.2-1.3,7.9c-1.3,2.3-3,5.5-7.1,11.2
			c-7.3-8.7-15.7-19.3-19.6-25.4c2.9-2.1,11.5-8.8,14.8-13.6c4-5.8,4-17.5-2.6-22.7c-6.7-5.1-16.7-4.9-24.3,1.4
			c-7.7,6.3-10.8,14.4-8.6,23.8c1,4,3.8,9,6.8,13.6c-0.6,0.3-1.2,0.7-1.7,1c-6.2,3.5-19,14.1-15.2,31.5c3.9,17.5,22.3,21,32.5,15.1
			c4.4-2.5,9.1-6.2,13.4-10.6c2.6,3,4.5,5.2,5.7,6.3c5,4.6,13.7,6.4,19.5,3.4c4.9-2.4,8.3-6.8,8.3-6.8v-3.2H562.3z M510.5,460
			c3.4-8.9,11.9-7.6,15.1-2.7s1.6,14.8-3.4,20c-1.9,1.9-4.2,3.9-6.7,5.8C510.9,475.1,507.4,467.9,510.5,460z M512.7,529.4
			c-11.8-1.4-17.4-15.2-13-24.5c2.4-5.1,5.1-8,7.6-10.2c3,4.3,5.4,7.2,5.4,7.2s9.3,11.9,17.1,21.3
			C528.5,524.8,522.9,530.7,512.7,529.4z"/>
		<path class="st1" d="M600.8,518.5v-16.3c3.6,0,8.4,0,14.8,0c18.3,0,43.1-8.5,43.4-42.1c0.2-16.3-8.5-26-17.5-30.8
			c-9.6-5.1-19.6-4.8-19.6-4.8h-58.5v8.8h6.9c0,0,9.2-0.1,9.2,10.6c0,10.7,0,83.5,0,83.5v9.1c0,11-9.6,11.6-9.6,11.6h-6.6v7.3h23.7
			h6.9h25.3v-7.1h-7.3c0,0-11.3-0.6-11.3-12v-8.1V518.5z M614.6,434c0,0,17.4,0.2,21.6,19.6c4.2,19.4-4.7,39.1-20.6,39.1
			c-7,0-11.7,0-14.8,0V434H614.6z"/>
	</g>
</g>
</svg>
