<?xml version="1.0" encoding="utf-8"?>
<!-- Generator: Adobe Illustrator 24.3.0, SVG Export Plug-In . SVG Version: 6.00 Build 0)  -->
<svg version="1.1" xmlns="http://www.w3.org/2000/svg" xmlns:xlink="http://www.w3.org/1999/xlink" x="0px" y="0px"
	 viewBox="0 0 1024 1024" style="enable-background:new 0 0 1024 1024;" xml:space="preserve">
<style type="text/css">
	.st0{fill:#FFFFF9;}
	.st1{fill:#1E211F;}
</style>
<g id="Layer_3">
	<rect class="st0" width="1024" height="1024"/>
</g>
<g id="Layer_2">
	<g>
		<path class="st1" d="M634.7,455c-4.2-19.4-21.6-19.6-21.6-19.6h-13.8v58.7c3.1,0,7.8,0,14.8,0C630,494.1,638.9,474.4,634.7,455z"
			/>
		<path class="st1" d="M506,496.1c-2.5,2.2-5.3,5.1-7.6,10.2c-4.4,9.3,1.2,23.1,13,24.5c10.2,1.3,15.8-4.6,17.2-6.2
			c-7.8-9.4-17.1-21.3-17.1-21.3S509,500.4,506,496.1z"/>
		<path class="st1" d="M520.8,478.7c5-5.2,6.6-15.1,3.4-20c-3.2-4.9-11.7-6.2-15.1,2.7c-3,7.9,0.4,15.1,5,23.1
			C516.6,482.6,518.9,480.6,520.8,478.7z"/>
		<path class="st1" d="M725.2,650.4c8.2-15.2,8.3-22,8.3-21.7s111.3-85.1,115.8-89.2c4.4-4.1,2.8-9.3,0.7-11.7
			c-2.1-2.3-6.3-0.8-11.9,2s-108.4,71.2-133.1,85.7c-24.7,14.5-32.3,15.5-37.5,17.3c-5.2,1.8-120.1,16.5-180.1,22.3c0,0,0,0-0.1,0
			c0-9.6,0-41,0-61.4c3.3-0.2,6.6-0.4,9.8-0.6c66.4-3.6,112.3,11.4,147.3,36.4c0,0,16.8-15.5,28.5-41.7s11.5-36.7,11.5-36.7
			s7.7,25.7,9,50c0,0,23.3-22,51.7-37.7c28.3-15.7,53.5-14.2,53.5-14.2s2.3,0.1,0.6-3.4s-45.2-56.1-69.6-85
			c-24.4-28.9-89.6-77.6-112.4-91.6c0,0,28.7-46.7-12.3-88.7c0,0,4.9-10.2-3.4-11.6c-3.2-0.5-33.6-3.3-70.2-6.6c0-0.1,0-0.1,0-0.2
			v-89.7c0-4.8-3.9-8.8-8.8-8.8c-4.8,0-8.8,3.9-8.8,8.8v11.6c-5.4,3.4-20.2,11.2-43.5,13.9c-30,3.5-51.7-1.3-51.7-1.3
			s7.2,20.8,48.8,30.3c23.1,5.3,37.9,6,46.4,5.7v28.1c-56.2-5.1-118.5-10.6-118.5-10.6s-9-0.7-5.8,4.3c3.2,5,26.5,14.9,26.9,58
			c0.4,43.1-19.1,58.7-25.3,62.7l9.1-23.3c0,0,1.5-2.7-1.9-3.3c-1.3-0.2-14.2-1.5-30-2.9v-17.9c0,0,0.4-10.6-3.6-15.2
			c-4-4.7-7.2-5.1-11.7-5.2c-4.4-0.1-6.2,1.4-3.9,6.4c2.3,5,2.9,9.2,2.9,9.2v21.2c-22.9-2.1-45.7-4.1-45.7-4.1s-4.1-0.8-4.2,3.2
			c-0.1,4,6.9,8.7,11.8,29.3c4.9,20.7-3.1,63.7-25.1,91.2l46.9,8.2c0,0,7.1-49.3,7.6-73.8c0,0,32.9,93.6-39,185.6
			c20.3-47.3,30.8-101.5,30.8-101.5l-42.8-8c0,0-0.3,29.2-14.2,66.2s-36.5,58.3-39.5,63.8s-0.5,5.7,11.2,5.3
			c11.2-0.3,85.4,2.8,96.9,3V643l-86.7,0.3c0,0-1.6,24.3,5.4,38.9s20.2,19.2,20.2,19.2s-4.2,22.7,11.1,43.6
			c15.3,20.9,31.3,30.9,31.3,30.9s-21.8-7.6-38.9-5.1c-17.2,2.5-37.4,12.1-64.3,7.6c0,0,8.4,19.1,36.2,17.3s31.1-7.1,49.6-3.8
			c18.4,3.3,36.9,8.7,64.4-3.6s57.8-21.3,88.4-16.4c30.7,4.9,57.6,14.4,87.3,3.6c29.8-10.9,46.1-14.3,72.1-7
			c26,7.3,43.8,18.8,77,23.3c33.2,4.5,58.5-2.5,67.5-13.5c0,0-14.8,4.3-32,0c-17.2-4.3-28-8.3-38.7-7.8c-10.7,0.5-27.8,4.2-27.8,4.2
			s20.3-77.2,28.3-99.2C697.2,675.4,717,665.6,725.2,650.4z M537.7,535.2c-1.2-1.1-3.2-3.3-5.7-6.3c-4.3,4.3-9,8-13.4,10.6
			c-10.1,5.9-28.6,2.4-32.5-15.1s9-28,15.2-31.5c0.6-0.3,1.1-0.7,1.7-1c-3-4.6-5.8-9.6-6.8-13.6c-2.3-9.4,0.9-17.5,8.6-23.8
			c7.7-6.3,17.6-6.5,24.3-1.4c6.7,5.1,6.6,16.8,2.6,22.7c-3.3,4.8-11.9,11.5-14.8,13.6c4,6.1,12.3,16.6,19.6,25.4
			c4-5.6,5.8-8.9,7.1-11.2c1.5-2.7,2.3-5.9,1.3-7.9c-1.1-2-3-1.9-3-1.9h-8.4v-5.5h31.2v4.9c0,0-4.9-0.5-7.9,2.3
			c-3,2.8-4.8,6.9-10.8,15.9c-1.6,2.4-3.5,5-5.7,7.8c3.9,4.6,7.3,8.1,9,9.6c5.5,4.7,11.6,0,11.6,0h4.7v3.2c0,0-3.4,4.4-8.3,6.8
			C551.4,541.6,542.7,539.8,537.7,535.2z M620.5,425.9c0,0,10-0.3,19.6,4.8c9,4.8,17.7,14.5,17.5,30.8
			c-0.4,33.6-25.2,42.1-43.4,42.1c-6.3,0-11.2,0-14.8,0v16.3v9.8v8.1c0,11.4,11.3,12,11.3,12h7.3v7.1h-25.3h-6.9H562v-7.3h6.6
			c0,0,9.6-0.7,9.6-11.6v-9.1c0,0,0-72.8,0-83.5c0-10.7-9.2-10.6-9.2-10.6H562v-8.8H620.5z M518.7,352.7c60.3,4,97.7,39.6,97.7,39.6
			l-202.4-18.4C413.9,373.8,447.9,348.1,518.7,352.7z M399.5,514.8h6.5c0,0-0.2,20.7,10.4,28.5c10.6,7.8,28.6,9.3,37.6,0.6
			c9.1-8.7,7-24.4,1.5-30s-13.6-10.2-22.7-14.5c-9.1-4.2-26.8-12.7-30.5-32c-3.7-19.3,7-33.5,17.5-39.7c12.8-7.6,36.7-7,51.1,2.7
			l0.2,29.9h-5.8c0,0,0.5-14.3-7.3-22c-7.7-7.7-22.2-8.4-31.1-1.8c-8.4,6.2-9.9,21.8,0,29.9c9.9,8.1,17.7,11.8,28,17.7
			c10.3,5.8,22.8,14,22.8,35.2s-11.7,35.2-31.7,39.2c-20,4-39.5-3.4-46.5-8.9V514.8z M473.7,594.8v61.6c-7.3,0.7-14.1,1.3-20.6,1.9
			l8.6-62.4C465.7,595.6,469.7,595.2,473.7,594.8z M362.9,611.1c0.5-0.1,0.8-0.2,0.8-0.2s39.6-8.4,88.1-13.9
			c-3.1,21.5-7.8,53.7-9,62.2c-33.9,2.9-54.3,4.2-54.3,4.2v-20.6l-25.7,0.1V611.1z M373.8,755.4l-23.6,1.7v-23.7l23.6-1.5V755.4z
			 M415.9,752.4v-23.3l23-1.5c0,3.6,0,16.6,0,23.1L415.9,752.4z M505.1,746l-22.6,1.6v-22.9l22.6-1.5V746z M569.6,741.4l-22.4,1.6
			v-22.5l22.4-1.5V741.4z M612.1,693.1c-6.9,0.9-114.3,10.1-144.7,12.2c-30.3,2.2-138.4,6-163.2,6.9v-8.6c0,0,94.3-3.5,137.3-5.7
			c43-2.2,177-15.5,177-15.5v5.8C618.6,688.4,619,692.2,612.1,693.1z"/>
		<path class="st1" d="M618.6,785c-25.6-6-39.8-2.2-71.1,6.7c-31.3,8.9-48.2-0.2-80.4-5.3c-32.2-5.1-64.2,5.6-91.8,16
			c-27.6,10.4-49.1,8.4-49.1,8.4s14.1,15,52.1,10.8c38-4.2,53.7-19,90.2-12s51.3,15.7,78.5,7.8c27.2-7.8,42.3-16,74.8-10.7
			c32.4,5.3,61.3,13.3,78.9-5C668.6,805.1,644.1,790.9,618.6,785z"/>
	</g>
</g>
</svg>
