<?xml version="1.0" encoding="utf-8"?>
<!-- Generator: Adobe Illustrator 24.3.0, SVG Export Plug-In . SVG Version: 6.00 Build 0)  -->
<svg version="1.1" id="Layer_4" xmlns="http://www.w3.org/2000/svg" xmlns:xlink="http://www.w3.org/1999/xlink" x="0px" y="0px"
	 viewBox="0 0 1024 1024" style="enable-background:new 0 0 1024 1024;" xml:space="preserve">
<style type="text/css">
	.st0{fill:#0059A5;}
	.st1{fill:#FC630E;}
</style>
<g>
	<g>
		<path class="st0" d="M811.1,517c-4.2,2.1-142.7,90.8-142.7,90.8l-152.9,16.1c0-5.3,0-32.6,0-51.9c18.5-0.1,37.2,0.9,53.1,3.3
			c34.7,5.3,66.2,28.7,66.2,28.7s21.6-16.2,30.2-43.8s10.3-43.2,10.3-43.2s8.8,15,5.2,49.2c0,0,43.2-38,91.3-33.2
			c0,0-76.1-112.2-177.4-163.7c0,0,10.4-24.1,5.6-47.4c-4.8-23.3-19.5-33.3-19.5-33.3s5.4-6.4-0.2-6.7l-63.9-5.8v-77.7
			c0-4.1-3.3-7.4-7.4-7.4c-4.1,0-7.4,3.3-7.4,7.4V212c-5.1,1.7-20.5,6.7-36.4,9.6c-19.5,3.5-41.3,1.2-41.3,1.2s16.5,19.9,50,23.9
			c13.5,1.6,22.2,1.8,27.7,1.4v26.5l-91.9-8.4c0,0-4,0.2-1.1,3.6c2.9,3.3,18.7,9.6,20,48.9c1.3,39.3-24.4,57-24.4,57l8.3-22.2
			l-36.6-3.3V325c0-3.6-2.9-6.6-6.6-6.6s-6.6,2.9-6.6,6.6v23.9l-45.6-4.2c0,0,11.7,15,5.6,49.3c-6.2,34.3-20.3,51.8-20.3,51.8
			l43.8,10c0,0,5.8-39.8-1.2-71.5c0,0,13,25.7,8,80.7s-40.3,92.3-50.7,98.7c0,0,36.7-45.7,42.5-102.2l-41.5-7.5c0,0,7,68-51.7,132.7
			l110.8,5v30.3l-81.6,1.7c0,0-0.6,20.9,4,30.7s13,10.3,13,10.3s-0.4,39.1,33.1,62.2c0,0-17.7-0.2-27.2,1.8s-27.6,7.1-48.3,3.3
			c0,0,13.7,14.7,36,13.4c22.3-1.2,23.4-5.4,38.1-3.1c14.7,2.3,27.4,4.2,49.9-6.8s47.8-19.1,77.2-11.1c29.3,8,45.3,12.4,74.2,1.6
			c28.9-10.9,50-9.6,68.9-3.8c18.9,5.8,41.6,20.7,60.6,21.3s22-5.2,37.2-1.9c15.2,3.3,26.1,3.7,38.2-0.1
			c12.1-3.8,17.6-10.9,17.6-10.9s-16.3,3.6-32,1.1c-15.7-2.4-26.8-5.2-40.4-5.2c-13.7,0-21,2.6-21,2.6l29.1-85.1
			c30.5-16.6,34.8-47.9,34.8-47.9s80.9-63.2,86.2-67.1c5.2-3.9,8.9-6.9,8.7-9.9S815.3,514.9,811.1,517z M516.5,355
			c53.5,4.3,82.7,38,82.7,38l-82.7-8V355z M460.7,629.6l13.3-55.5c3.2-0.3,6.6-0.7,10-0.9l-9.2,54.9L460.7,629.6z M502,572.2v53.1
			l-20.4,2.1l8.5-54.6C494,572.6,497.9,572.4,502,572.2z M501.6,354.4v29.1l-81.1-7.9C420.5,375.6,449.5,354.4,501.6,354.4z
			 M375.7,590.8c6-1.1,52.1-9.1,79.8-14.1c3.8-0.7,7.9-1.3,12.3-1.9l-13.7,55.4l-50.5,5.3v-14.4l-27.9,0.6V590.8z M380.5,709.8
			l-20.3,1.3v-18.4l20.3-0.9V709.8z M442.7,707.2l-20.3,1.3v-18.7l20.3-0.9V707.2z M502,703.3l-20.3,1.8v-18.9L502,685V703.3z
			 M560.1,697.9l-20.3,1.3v-18.4l20.3-1.5V697.9z M633.7,647.7c-55.8,7.4-186.3,20.5-220.5,22.6c-35.9,2.1-90,3.4-102.3,3.7v-8
			c12.5-0.3,66.2-1.6,101.8-3.7c35-2.1,170.7-15.8,223.5-23L633.7,647.7z"/>
		<path class="st0" d="M599.6,735.8c-30.2-9-54.3,0.8-76.2,7c-21.8,6.2-36.7,3.3-62.5-4.2c-25.8-7.5-51.5-2.5-83.2,8.8
			c-31.7,11.3-50.5,8.2-50.5,8.2s12.5,13.3,46.5,9.3s52.2-15.7,87.5-7.8c35.3,7.8,41.8,12,76.3,1.8s46.3-6.7,66.2-2.7
			c19.8,4,45.3,17.2,73-1.3C646.4,758.6,629.7,744.8,599.6,735.8z"/>
	</g>
	<g>
		<path class="st1" d="M512,899.4c-52.3,0-103-10.2-150.8-30.4c-46.1-19.5-87.6-47.4-123.1-83c-35.6-35.6-63.5-77-83-123.1
			c-20.2-47.8-30.4-98.5-30.4-150.8s10.2-103,30.4-150.8c19.5-46.1,47.4-87.6,83-123.1c35.6-35.6,77-63.5,123.1-83
			c47.8-20.2,98.5-30.4,150.8-30.4s103,10.2,150.8,30.4c46.1,19.5,87.6,47.4,123.1,83c35.6,35.6,63.5,77,83,123.1
			c20.2,47.8,30.4,98.5,30.4,150.8S889.2,615,869,662.8c-19.5,46.1-47.4,87.6-83,123.1s-77,63.5-123.1,83
			C615,889.2,564.3,899.4,512,899.4z M512,139.6c-205.3,0-372.4,167-372.4,372.4c0,205.3,167,372.4,372.4,372.4
			c205.3,0,372.4-167,372.4-372.4C884.4,306.7,717.3,139.6,512,139.6z"/>
		<g>
			<path class="st1" d="M451.6,476.8c-9.8-5.2-17.2-8.5-26.5-15.7c-9.3-7.2-8-21,0-26.5c8.4-5.8,22.1-5.2,29.4,1.6
				c7.3,6.8,6.9,19.5,6.9,19.5h5.5l-0.2-26.6c-13.7-8.6-36.3-9.1-48.4-2.4c-9.9,5.5-20.1,18.1-16.6,35.2s20.3,24.7,28.9,28.4
				c8.6,3.8,16.2,7.8,21.5,12.8s7.2,18.9-1.4,26.7c-8.6,7.8-25.7,6.4-35.7-0.5c-10-6.9-9.8-25.3-9.8-25.3h-6.2V535
				c6.7,4.9,25.2,11.5,44.1,7.9c18.9-3.6,30-16,30-34.8C473.2,489.3,461.3,482,451.6,476.8z"/>
			<path class="st1" d="M551.9,516.1c0,0-5.7,4.3-10.9,0c-1.6-1.3-4.8-4.6-8.5-8.8c2.1-2.5,3.9-5,5.4-7.2c5.7-8.2,7.4-12,10.2-14.6
				c2.8-2.6,7.5-2.1,7.5-2.1v-4.5h-29.5v5.1h7.9c0,0,1.9,0,2.9,1.8s0.2,4.8-1.2,7.2c-1.2,2.1-2.9,5.1-6.7,10.3
				c-7-8.1-14.8-17.8-18.6-23.4c2.7-2,10.9-8.1,14-12.6c3.8-5.4,3.8-16.2-2.5-20.9c-6.3-4.7-15.8-4.5-23.1,1.3
				c-7.3,5.8-10.3,13.2-8.1,21.9c0.9,3.6,3.6,8.3,6.4,12.5c-0.6,0.3-1.1,0.6-1.6,0.9c-5.8,3.3-18,13-14.4,29
				c3.7,16.1,21.2,19.3,30.8,13.9c4.1-2.3,8.6-5.7,12.7-9.7c2.4,2.8,4.3,4.8,5.4,5.8c4.7,4.2,12.9,5.9,18.4,3.2
				c4.7-2.2,7.9-6.2,7.9-6.2v-2.9H551.9z M502.9,454.1c3.2-8.2,11.3-7,14.3-2.5c3.1,4.5,1.6,13.7-3.2,18.4c-1.8,1.8-4,3.6-6.4,5.3
				C503.3,468,500,461.4,502.9,454.1z M505,518.1c-11.2-1.3-16.4-14-12.3-22.6c2.3-4.7,4.9-7.3,7.2-9.4c2.9,4,5.1,6.6,5.1,6.6
				s8.8,10.9,16.2,19.6C519.9,513.8,514.6,519.2,505,518.1z"/>
			<path class="st1" d="M588.4,508.8v-14.5c3.4,0,8,0,14,0c17.3,0,40.8-7.5,41.2-37.3c0.2-14.4-8-23.1-16.6-27.3
				c-9.1-4.5-18.6-4.2-18.6-4.2H553v7.8h6.6c0,0,8.8-0.1,8.8,9.4s0,74.1,0,74.1v8.1c0,9.8-9.1,10.3-9.1,10.3H553v6.5h22.5h6.6h24
				v-6.3h-6.9c0,0-10.8-0.5-10.8-10.6v-7.2V508.8z M601.5,433.8c0,0,16.4,0.2,20.4,17.4s-4.5,34.7-19.5,34.7c-6.6,0-11.1,0-14,0
				v-52.1H601.5z"/>
		</g>
	</g>
</g>
</svg>
