<?xml version="1.0" encoding="utf-8"?>
<!-- Generator: Adobe Illustrator 24.3.0, SVG Export Plug-In . SVG Version: 6.00 Build 0)  -->
<svg version="1.1" xmlns="http://www.w3.org/2000/svg" xmlns:xlink="http://www.w3.org/1999/xlink" x="0px" y="0px"
	 viewBox="0 0 1536 1024" style="enable-background:new 0 0 1536 1024;" xml:space="preserve">
<style type="text/css">
	.st0{fill:#FFFFFC;}
	.st1{fill:#F56B0D;}
	.st2{fill:#005EAE;}
</style>
<g id="Layer_4">
	<rect class="st0" width="1536" height="1024"/>
</g>
<g id="Layer_3">
	<g>
		<path class="st1" d="M641.2,483.7h3.5c1.7,13,10.5,20.9,22.1,20.9c9.6,0,14.9-4.2,14.9-12.5c0-6.1-3.1-9.8-12.1-14.4l-11.8-5.9
			c-10.4-5.3-15.5-11.6-15.5-21.9c0-12.8,9.4-22.3,22.4-22.3c6.4,0,11.7,2.2,16.8,6.6l2.1-5h2.2l0.9,22h-3.5
			c-3-11.6-9.4-17.6-18.1-17.6c-6.8,0-12.1,4-12.1,10.7c0,6.9,4.3,10.2,14.2,15.1l8.6,4.4c11.3,5.6,17.2,12.5,17.2,23.3
			c0,14.4-11.6,23.6-25.8,23.6c-8.6,0-15.2-3.2-20.3-7.5l-2.3,5.9h-2.2L641.2,483.7z"/>
		<path class="st1" d="M759.4,481.6c0,16.9-12.3,28.9-28.4,28.9c-16,0-28.1-11.9-28.1-28.9c0-16.2,12.1-27.9,28.1-27.9
			C747.1,453.7,759.4,465.5,759.4,481.6z M716.8,481.7c0,14.1,5.2,22.9,14.2,22.9c9.1,0,14.7-8.9,14.7-22.9
			c0-13.3-5.7-22.6-14.7-22.6S716.8,468.3,716.8,481.7z"/>
		<path class="st1" d="M784.2,492.5c0,10.3,1,11.3,9.4,11.5v3.8h-28.6V504c7.1-0.4,7.9-1.6,7.9-11.4v-11.8c0-17-0.7-18.3-8.2-18.3
			v-3.4l17.4-3.7l1.4,11.5h0.3c3.3-7.2,9.4-12,15.3-12c4.6,0,7.3,2.7,7.3,6.4c0,4.3-2.5,7.2-5.9,7.2c-3.9,0-5.3-4-8.7-4
			c-4.3,0-7.5,8-7.5,21.7V492.5z"/>
		<path class="st1" d="M830.7,491.8c0,10.3,1.1,11.8,8.4,12.1v3.8h-29.2v-3.8c7.3-0.3,8.6-2.2,8.6-11.4v-12.4
			c0-7.6-0.2-12.6-0.6-14.4c-0.6-3.2-2.3-3.9-8.2-3.9v-3.4l20.9-3.8V491.8z M823.5,427.3c4.5,0,7.9,3.6,7.9,8.2
			c0,4.4-3.5,8.1-7.9,8.1c-4.4,0-7.7-3.7-7.7-8.1C815.7,430.9,819.1,427.3,823.5,427.3z"/>
		<path class="st1" d="M864,463.8c4.4-6,10.7-9.1,18-9.1c11.6,0,19.4,6.3,19.4,22.4v14.8c0,10.6,0.7,11.6,8.1,12v3.8h-28.3v-3.8
			c6.9-0.3,7.9-1.6,7.9-11.4v-13.7c0-13.4-3.4-18.2-11.1-18.2c-8,0-12.6,5.9-12.5,17.4v13.8c-0.1,10.7,0.5,11.6,7.6,12v3.8h-28.5
			v-3.7c7.4-0.5,8.4-1.6,8.5-11.4V480c-0.1-7.6-0.3-12.6-0.6-14.3c-0.8-3.5-2.3-4-8.1-4v-3.2l18.1-3.8l1.3,9.1H864z"/>
		<path class="st1" d="M1068.5,474.1h-7.5v17.9c0,10.5,1.9,12.4,13.6,12.4v4h-37.1v-4c8.9-0.3,10.4-2.1,10.4-11.8v-47.1
			c0-9.6-1.3-11.4-9.4-11.7v-4.1h31.8c19.4,0,29.7,7.6,29.7,21.2C1100.1,464.8,1090.2,474.1,1068.5,474.1z M1061,468.3h6.1
			c12.4,0,18.6-5.5,18.6-16.8c0-11.3-5.1-16.7-16-16.7h-7c-1,0-1.7,0.8-1.7,1.8V468.3z"/>
		<path class="st1" d="M978.3,489c5.4-7.3,8.8-13.5,8.8-16.5c0-1.8-1.5-2.6-5.1-2.6v-3.4h19.1v3.4c-4.7,0-6.6,1.4-9.1,5.2l-11,17.8
			c5,6.8,9.3,9.5,13.5,9.5c2.8,0,4.8-1,6.6-4.6l2.1,0.6c-1.5,6.7-6.8,11.3-13.5,11.3c-6.2,0-10.8-2.3-16-9c-5.8,5.5-12.8,9-20.4,9
			c-10.3,0-16.8-6.3-16.8-16.4c0-8.4,4.5-15.2,16.9-21.4c-3.7-5.8-5.7-11.4-5.7-17.2c0-9.1,6.9-16.4,17-16.4
			c8.4,0,14.4,6.2,14.4,14.6c0,6.9-3.7,12.7-13.4,18.1L978.3,489z M956.4,476.7c-5.2,3.8-8.4,8.5-8.4,14.3c0,7.5,4.5,11.8,10,11.8
			c4.2,0,9.1-1.9,13.1-5.5L956.4,476.7z M970.1,452.3c0-5-2-8.3-5.8-8.3s-6.3,3-6.3,8.6c0,4.8,1.6,9.6,4.7,14.2
			C967.7,462.3,970.1,457.4,970.1,452.3z"/>
		<path class="st1" d="M1110.8,529.1c0-3.5,2.2-5.9,7.7-6.8c5.4-1,8.8-1.1,10.8-5.8l2.8-6.2l-17.7-42.9c-3.2-7.7-4.4-8.8-9.2-9.1
			v-3.8h27.1v3.8c-4.6,0-6.5,0.9-6.5,3.6c0,1.4,0.7,3.7,1.8,6.8l9.7,26.6h0.7l7.4-19.5c3-7.3,4.3-11.5,4.3-14c0-3.1-2.2-3.6-7-3.6
			v-3.8h21.7v3.8c-4.8,0-6.4,1.9-12.6,17l-19.6,48.8c-3.1,7.8-8.6,11.2-14.3,11.2C1113.5,535.3,1110.8,532.8,1110.8,529.1z"/>
		<path class="st1" d="M1186.3,425.6v66.7c0.1,10.3,1,11.8,8.2,12.1v3.9h-28.4v-3.9c7.1-0.3,8.5-2.1,8.5-11.4v-42.2
			c0-7.4-0.3-12.4-0.7-14.2c-0.7-3.1-2.4-3.9-8-3.9v-3.4L1186.3,425.6z"/>
		<path class="st1" d="M1227.7,472.5c5.2,0,6-0.3,6-2.8c0-5.9-2.9-10.1-8.8-10.1c-7.5,0-12.7,6.3-12.7,21.3c0,14.3,4.8,22.2,15,22.2
			c5.9,0,10.8-2.4,15.5-6.8l2.6,3.2c-5,6-12.5,9.4-20.9,9.4c-15.5,0-25.5-9.8-25.5-26.8c0-17,10.4-27.8,26.5-27.8
			c13.3,0,20.4,7.6,20.4,20.9c0,2-0.3,2.4-3,2.4h-34.1l0.3-5.2H1227.7z"/>
		<path class="st2" d="M540.8,551.2c0,0-26.8,6.8-58.4,9.5c-11,0.9-28.8,2.5-47.2,4.1v-40.1c49.8,0.4,76.5,16.4,79,23.2
			c0,0,7.9-4.1,17.3-23.3s7.8-39.6,7.8-39.6s2,8.1,4.1,22.7c2.1,14.6,2.4,20.9,2.4,20.9s13-15,30.9-20.3c17.9-5.3,33.7-3.4,33.7-3.4
			s-24.7-32.6-63.1-71.8C508.7,394,485,385.6,485,385.6s8-19.9,3.6-34.6c-4.4-14.6-13.8-20.6-13.8-20.6s3.4-3.5-2.2-5.2
			c-2.2-0.6-18.5-2.7-37.6-5v-47.8c0-2.2-1.7-4-3.9-4c-2.2,0-3.9,1.8-3.9,4v6.4c-2.7,1-8.7,3.2-18.9,6c-14.3,3.9-28.1,1.9-28.1,1.9
			s7.9,11.5,27.7,14.5c10.2,1.5,16.1,1.7,19.4,1.6v16.5c-28-3.3-58.6-6.7-58.6-6.7s-2-0.3-2.4,1.4c-0.4,1.8,2.4,2.4,5.9,7
			c3.5,4.6,21.8,35.4-6.8,66.9l4.6-13.7l-22.1-2.7c0-5.1,0-15.5,0-19c0-4.6-4.5-4.9-6.3-4.8c-1.8,0.1-1.5,1.5-1.5,1.5v2.1v19.2
			l-29.9-3.7c0,0-3-0.2-1.5,2.4s9.1,21.6,5.3,38.5s-12.7,30-12.7,30s-2.6,3.2,0.9,3.9c3.4,0.8,28.7,4.1,28.7,4.1s4.6-22.6-0.2-46.3
			c0,0,10.9,19.3,6,55.8s-31.2,63.4-31.2,63.4s20.7-25.6,24.7-67.8l-27.7-5c0,0,1.9,28.9-10.2,52.5c-12,23.5-23.3,37-23.3,37
			s-3.2,4,1.5,3.8c4.6-0.2,28.5-0.2,40.5,1.4c12,1.6,18.6,3.7,18.6,3.7s4.3-1.7,11.6-4.1v21l-59.8,2.2c0,0-0.3,5.6,2.2,17.2
			c2.5,11.6,12.9,15.3,12.9,15.3s-1.5,8.8,6.6,24.3c8.1,15.5,25.1,23.6,25.1,23.6s-2.4-0.2-8.4-1.3c-6-1.1-16.7-6.1-34.7-0.3
			c-18.1,5.8-29.5,1.9-29.5,1.9c8.3,10.9,20.6,10.3,33.8,8.7c13.2-1.6,19.9,3.9,36.4,2.9c16.4-1,33.1-13.1,52.7-17.2
			c19.5-4,22.1,5.7,44,8.6c22,2.9,33.3-11.4,53-11.3c19.7,0.2,36.5,10.8,46.7,14.5c10.2,3.8,18.4,4.4,28.9,2.4
			c10.5-2,12.4,0.8,23.8,1.1c11.3,0.4,22.6-9.7,22.6-9.7s-6.2,1.3-14.5,1.5c-8.3,0.3-10.5-0.5-19.5-4.5c-9-4-27.2,1.3-27.2,1.3
			c4.4-34.2,16.8-63.1,16.8-63.1s4.5-1.4,11.8-9.6c7.3-8.2,11.3-23.2,11.3-23.2s22.4-18.8,41.6-33.2l-5.3-6.1
			C583.3,525.3,540.8,551.2,540.8,551.2z M435.5,375l0.2,0c29,2.7,54.7,25.1,54.7,25.1l-54.8-5.5V375z M426.5,374.5v19.2l-50.8-5.1
			C384.5,382,402.3,374.2,426.5,374.5z M419,525.1c2.3-0.1,4.6-0.2,6.9-0.3v40.9c-4.4,0.4-8.8,0.8-13.2,1.2L419,525.1z M407.4,567.3
			c-3.5,0.3-6.8,0.6-10.1,0.9c2.8-13.5,8.2-34.3,10.2-42.2c2.2-0.2,4.5-0.4,6.8-0.6C411.4,538.7,408.5,559.3,407.4,567.3z
			 M349.2,537.9c13.2-4,32.1-8.7,53.3-11.3c-4.1,12.1-8.3,32.6-10.2,42.1c-16.7,1.5-28.7,2.6-28.7,2.6l-0.1-10.7l-14.3,0.5V537.9z
			 M349.2,627.6l-13.2,1v-14.1l13.2-0.8V627.6z M389,624.7l-13.3,1V612l13.3-0.9V624.7z M425.9,622l-13.2,1v-13.4l13.2-0.8V622z
			 M462.7,619.4l-13.3,1v-13.1l13.3-0.9V619.4z M506.8,587c-89.4,15.5-186.5,16-198.5,16c-0.8,0-1.2,0-1.2,0l0-5.3
			c1,0,105.6,0.5,200.6-16.3L506.8,587z"/>
		<path class="st2" d="M491.2,646.8c-19.2-6.3-35,3.8-52.1,7.8c-17.1,4-26.7-2.4-41.8-6.9c-15.1-4.5-35.4,2.9-50.9,9.4
			c-15.5,6.6-33.6,5.8-33.6,5.8s9.3,7.7,31.1,5.3c21.8-2.4,30.8-9,48.7-6.2c17.9,2.8,24.9,11.6,49.1,5s33.2-9.9,51.1-6.1
			c17.9,3.9,43.5,11.8,53.5,0.8C529.8,663,510.4,653.1,491.2,646.8z"/>
		<path class="st1" d="M399.1,458.4c-5.8-3.2-10.2-5.3-15.7-9.8c-5.5-4.5-4.7-13.2,0-16.6c5-3.7,13.1-3.3,17.5,1
			c4.4,4.3,4.1,12.2,4.1,12.2h3.3l-0.1-16.7c-8.1-5.4-21.6-5.7-28.8-1.5c-5.9,3.5-11.9,11.4-9.9,22.1c2.1,10.8,12.1,15.5,17.2,17.8
			c5.1,2.4,9.7,4.9,12.8,8.1c3.1,3.1,4.3,11.9-0.8,16.8c-5.1,4.9-15.2,4-21.2-0.3c-5.9-4.3-5.8-15.9-5.8-15.9h-3.7v19.4
			c4,3.1,14.9,7.2,26.2,5c11.2-2.3,17.8-10.1,17.8-21.9C411.9,466.2,404.9,461.6,399.1,458.4z"/>
		<path class="st1" d="M458.7,483c0,0-3.4,2.7-6.5,0c-1-0.8-2.8-2.9-5-5.6c1.2-1.6,2.3-3.1,3.2-4.5c3.4-5.2,4.4-7.6,6.1-9.2
			c1.7-1.6,4.5-1.3,4.5-1.3v-2.8h-17.5v3.2h4.7c0,0,1.1,0,1.7,1.1c0.6,1.2,0.1,3-0.7,4.6c-0.7,1.3-1.7,3.2-4,6.5
			c-4.1-5.1-8.8-11.2-11-14.7c1.6-1.2,6.5-5.1,8.3-7.9c2.2-3.4,2.3-10.1-1.5-13.1s-9.4-2.8-13.7,0.8c-4.3,3.6-6.1,8.3-4.8,13.7
			c0.5,2.3,2.1,5.2,3.8,7.9c-0.3,0.2-0.7,0.4-1,0.6c-3.5,2.1-10.7,8.1-8.5,18.2c2.2,10.1,12.6,12.1,18.3,8.7
			c2.5-1.5,5.1-3.6,7.5-6.1c1.4,1.7,2.5,3,3.2,3.7c2.8,2.7,7.7,3.7,11,2c2.8-1.4,4.7-3.9,4.7-3.9V483H458.7z M429.6,444.1
			c1.9-5.1,6.7-4.4,8.5-1.6c1.8,2.8,0.9,8.6-1.9,11.6c-1.1,1.1-2.4,2.3-3.8,3.3C429.8,452.8,427.9,448.7,429.6,444.1z M430.8,484.3
			c-6.6-0.8-9.8-8.8-7.3-14.2c1.3-2.9,2.9-4.6,4.3-5.9c1.7,2.5,3.1,4.2,3.1,4.2s5.2,6.9,9.6,12.3C439.7,481.6,436.6,485,430.8,484.3
			z"/>
		<path class="st1" d="M480.4,478.4v-9.1c2,0,4.8,0,8.3,0c10.3,0,24.3-4.7,24.5-23.5c0.1-9.1-4.8-14.5-9.9-17.2
			c-5.4-2.9-11-2.7-11-2.7h-32.9v4.9h3.9c0,0,5.2-0.1,5.2,5.9s0,46.5,0,46.5v5.1c0,6.1-5.4,6.5-5.4,6.5h-3.7v4.1h13.4h3.9h14.3v-4
			h-4.1c0,0-6.4-0.3-6.4-6.7v-4.5V478.4z M488.1,431.3c0,0,9.8,0.1,12.1,10.9c2.4,10.8-2.7,21.8-11.6,21.8c-3.9,0-6.6,0-8.3,0v-32.7
			H488.1z"/>
		<path class="st2" d="M1199.6,588.7c8.8,0,12.9-4.2,12.9-9.1c0-11.8-20.3-6.9-20.3-14.7c0-2.8,2.4-5.1,8.1-5.1c3,0,6.3,0.8,9.2,2.6
			l1.6-3.7c-2.8-1.8-6.8-2.8-10.7-2.8c-8.8,0-12.8,4.2-12.8,9.1c0,11.9,20.3,7,20.3,14.8c0,2.8-2.5,4.9-8.3,4.9
			c-4.3,0-8.6-1.6-11-3.7l-1.8,3.6C1189.5,587,1194.5,588.7,1199.6,588.7z M1155.7,574.7h-8.1v-14.4h8.1c6.1,0,9.3,2.6,9.3,7.2
			C1165,572,1161.8,574.7,1155.7,574.7z M1170.3,588.3l-7.9-10.7c4.7-1.6,7.4-5.2,7.4-10.1c0-7-5.3-11.2-14-11.2h-13v32h4.8v-9.7
			h8.3c0.7,0,1.4,0,2.1-0.1l7.2,9.8H1170.3z M1103.2,584.3V574h16.8v-3.9h-16.8v-9.8h18.8v-4h-23.6v32h24.3v-4H1103.2z
			 M1081.7,556.3h-4.7l-10.8,16.9l-10.7-16.9h-5.1l13.3,20.9v11.2h4.7v-11.1L1081.7,556.3z M1033.2,556.3l-9.2,26.2l-9.2-26.2h-4.4
			l-9.4,26l-9-26H987l11.2,32h5.1l9.1-25.6l9.1,25.6h5l11.2-32H1033.2z M950.1,576.7l7.2-15.7l7.2,15.7H950.1z M969.9,588.3h5
			l-15.2-32H955l-15.1,32h4.9l3.7-8h17.8L969.9,588.3z M904,588.3h22.9v-4h-18.1v-28H904V588.3z M838,588.3h22.9v-4h-18.1v-28H838
			V588.3z M795.9,576.7l7.2-15.7l7.2,15.7H795.9z M815.7,588.3h5l-15.2-32h-4.7l-15.1,32h4.9l3.7-8H812L815.7,588.3z M763.5,588.3
			h4.8v-32h-4.8V588.3z M729.3,574.7h-8.1v-14.4h8.1c6.1,0,9.3,2.6,9.3,7.2C738.6,572,735.4,574.7,729.3,574.7z M743.9,588.3
			l-7.9-10.7c4.7-1.6,7.4-5.2,7.4-10.1c0-7-5.3-11.2-14-11.2h-13v32h4.8v-9.7h8.3c0.7,0,1.4,0,2.1-0.1l7.2,9.8H743.9z M682.6,588.3
			h4.7v-28h11.5v-4h-27.7v4h11.5V588.3z"/>
	</g>
</g>
</svg>
