<?xml version="1.0" encoding="utf-8"?>
<!-- Generator: Adobe Illustrator 24.3.0, SVG Export Plug-In . SVG Version: 6.00 Build 0)  -->
<svg version="1.1" xmlns="http://www.w3.org/2000/svg" xmlns:xlink="http://www.w3.org/1999/xlink" x="0px" y="0px"
	 viewBox="0 0 1536 1024" style="enable-background:new 0 0 1536 1024;" xml:space="preserve">
<style type="text/css">
	.st0{fill:#FFFFFF;}
</style>
<g id="Layer_3">
	<rect x="-3.7" width="1539.7" height="1024"/>
</g>
<g id="Layer_2">
	<g>
		<g>
			<path class="st0" d="M712.4,530.5c0-11.4-5.9-18.8-17.1-24.6l-8.5-4.7c-9.8-5.2-14.1-8.7-14.1-16c0-7.1,5.3-11.3,12-11.3
				c8.6,0,15,6.4,18,18.6h3.5l-0.9-23.3h-2.2l-2.1,5.3c-5.1-4.7-10.3-7-16.7-7c-13,0-22.3,10.1-22.3,23.7c0,10.9,5.1,17.6,15.4,23.2
				l11.7,6.3c8.9,4.9,12,8.8,12,15.3c0,8.8-5.3,13.2-14.8,13.2c-11.6,0-20.3-8.3-22-22.1h-3.5l1.3,26.8h2.2l2.3-6.3
				c5.1,4.6,11.6,7.9,20.1,7.9C700.9,555.5,712.4,545.7,712.4,530.5z"/>
			<path class="st0" d="M750.2,495.2c-15.9,0-27.9,12.4-27.9,29.6c0,18,12,30.7,27.9,30.7c16,0,28.2-12.7,28.2-30.7
				C778.4,507.7,766.2,495.2,750.2,495.2z M750.2,549.2c-8.9,0-14.2-9.3-14.2-24.3c0-14.3,5.2-23.9,14.2-23.9s14.6,9.8,14.6,23.9
				C764.8,539.8,759.2,549.2,750.2,549.2z"/>
			<path class="st0" d="M791.7,523.9v12.5c0,10.4-0.8,11.6-7.9,12.1v4h28.5v-4c-8.3-0.2-9.3-1.2-9.3-12.2v-6.7c0-14.5,3.2-23,7.5-23
				c3.4,0,4.8,4.2,8.6,4.2c3.4,0,5.9-3,5.9-7.6c0-3.9-2.7-6.8-7.3-6.8c-5.9,0-12,5.1-15.3,12.7h-0.3l-1.3-12.2l-17.3,3.9v3.6
				C791,504.5,791.7,506,791.7,523.9z"/>
			<path class="st0" d="M836.6,508.1c0.4,1.9,0.6,7.2,0.6,15.2v13.1c0,9.7-1.3,11.8-8.6,12.1v4h29v-4c-7.3-0.3-8.4-1.9-8.4-12.9
				v-39.3l-20.8,4v3.6C834.3,503.9,836,504.7,836.6,508.1z"/>
			<path class="st0" d="M842.1,484.6c4.4,0,7.9-3.9,7.9-8.6c0-4.9-3.4-8.7-7.9-8.7c-4.3,0-7.7,3.8-7.7,8.7
				C834.4,480.6,837.7,484.6,842.1,484.6z"/>
			<path class="st0" d="M899.5,548.5v4h28.2v-4c-7.4-0.4-8.1-1.6-8.1-12.8V520c0-17-7.8-23.7-19.3-23.7c-7.3,0-13.5,3.2-17.9,9.6
				H882l-1.2-9.6l-18,4v3.4c5.8,0,7.3,0.6,8.1,4.3c0.3,1.8,0.5,7.1,0.6,15.1v13.4c-0.1,10.4-1,11.5-8.4,12.1v3.9h28.4v-4
				c-7.1-0.4-7.7-1.5-7.6-12.8V521c-0.1-12.2,4.5-18.5,12.5-18.5c7.6,0,11,5,11,19.2v14.5C907.4,546.8,906.3,548.1,899.5,548.5z"/>
			<path class="st0" d="M989.6,545.5c5.3,6.7,10,9.1,16.2,9.1c6.8,0,12.2-4.6,13.7-11.4l-2.1-0.6c-1.7,3.6-3.8,4.6-6.6,4.6
				c-4.3,0-8.6-2.8-13.7-9.7l11.2-18c2.4-3.8,4.4-5.2,9.2-5.2v-3.5h-19.3v3.5c3.7,0,5.1,0.8,5.1,2.7c0,3-3.4,9.3-8.9,16.7
				l-12.9-18.1c9.8-5.5,13.5-11.3,13.5-18.3c0-8.5-6-14.8-14.6-14.8c-10.2,0-17.2,7.4-17.2,16.6c0,5.9,2,11.5,5.8,17.4
				c-12.6,6.3-17.1,13.2-17.1,21.7c0,10.2,6.6,16.6,17,16.6C976.7,554.6,983.8,551,989.6,545.5z M980.3,488.2c3.8,0,5.8,3.4,5.8,8.4
				c0,5.1-2.4,10.1-7.5,14.7c-3.1-4.6-4.7-9.6-4.7-14.4C973.9,491.2,976.4,488.2,980.3,488.2z M963.7,535.7c0-5.9,3.3-10.6,8.6-14.5
				l14.8,20.9c-4,3.5-9,5.5-13.3,5.5C968.2,547.6,963.7,543.3,963.7,535.7z"/>
			<path class="st0" d="M1179.3,502.5v-3.9h-22v3.9c4.9,0,7.1,0.6,7.1,3.7c0,2.4-1.3,6.8-4.4,14.1l-7.5,19.7h-0.7l-9.8-26.9
				c-1.1-3.1-1.8-5.5-1.8-6.9c0-2.8,1.9-3.7,6.6-3.7v-3.9h-27.5v3.9c4.9,0.3,6.1,1.4,9.3,9.2l17.9,43.4l-2.8,6.2
				c-2,4.8-5.5,4.9-10.9,5.9c-5.6,0.9-7.8,3.3-7.8,6.9c0,3.8,2.7,6.3,7.2,6.3c5.8,0,11.3-3.5,14.5-11.4l19.9-49.4
				C1172.9,504.4,1174.5,502.5,1179.3,502.5z"/>
			<path class="st0" d="M1188.9,480.6c0.4,1.8,0.7,6.9,0.7,14.4v42.7c0,9.3-1.4,11.2-8.6,11.5v3.9h28.8v-3.9
				c-7.3-0.3-8.2-1.8-8.3-12.3v-67.5l-20.7,3.8v3.5C1186.5,476.7,1188.2,477.5,1188.9,480.6z"/>
			<path class="st0" d="M1258.7,522.2c2.7,0,3.1-0.3,3.1-2.4c0-13.5-7.2-21.2-20.6-21.2c-16.3,0-26.8,11-26.8,28.2
				c0,17.3,10.1,27.2,25.8,27.2c8.5,0,16.1-3.5,21.2-9.6l-2.6-3.3c-4.7,4.5-9.7,6.8-15.7,6.8c-10.3,0-15.2-8-15.2-22.5
				c0-1.1,0-2.2,0.1-3.3H1258.7z M1240.6,503.9c6,0,8.9,4.2,8.9,10.2c0,2.5-0.8,2.8-6.1,2.8h-15
				C1230.1,507.9,1234.6,503.9,1240.6,503.9z"/>
			<path class="st0" d="M452.9,527.5c5.8,0.7,9.1-2.7,9.9-3.6c-4.5-5.5-9.8-12.5-9.8-12.5s-1.4-1.7-3.1-4.2c-1.4,1.3-3,3-4.4,6
				C442.9,518.6,446.1,526.7,452.9,527.5z"/>
			<path class="st0" d="M523.6,484.9c-2.4-11-12.4-11.1-12.4-11.1h-7.9V507c1.8,0,4.5,0,8.5,0C520.9,507,526.1,495.9,523.6,484.9z"
				/>
			<path class="st0" d="M633.9,549.8c-29.5,18.1-69,45.6-69,45.6s-27.4,6.9-59.6,9.6c-11.2,0.9-29.3,2.5-48.1,4.2v-40.8
				c50.8,0.4,77.9,16.6,80.5,23.6c0,0,8-4.2,17.6-23.6c9.6-19.5,8-40.2,8-40.2s2,8.2,4.2,23.1s2.4,21.3,2.4,21.3
				s13.3-15.2,31.5-20.6c18.2-5.4,34.5-6.9,34.5-6.9s-25.4-29.7-64.5-69.4S508,427.3,508,427.3s8.1-20.2,3.6-35.1
				s-14.1-20.9-14.1-20.9s3.5-3.6-2.2-5.3c-2.2-0.6-18.9-2.7-38.3-5v-48.5c0-2.3-1.8-4.1-4-4.1s-4,1.8-4,4.1v6.5
				c-2.7,1.1-8.9,3.3-19.2,6.1c-14.6,3.9-28.7,2-28.7,2s8,11.7,28.2,14.7c10.4,1.5,16.4,1.7,19.7,1.6v16.8
				c-28.6-3.3-59.7-6.8-59.7-6.8s-2-0.3-2.4,1.5s2.4,2.4,6,7.1s22.2,35.9-6.9,67.9l4.7-13.9l-22.5-2.7c0-5.2,0-15.8,0-19.3
				c0-4.7-4.6-5-6.4-4.9c-1.8,0.1-1.5,1.5-1.5,1.5v2.1v19.5l-30.5-3.7c0,0-3.1-0.2-1.6,2.5c1.5,2.6,9.3,21.9,5.4,39.1
				s-12.9,30.5-12.9,30.5s-2.6,3.2,0.9,4c3.5,0.8,29.3,4.1,29.3,4.1s4.7-23-0.2-47c0,0,11.1,19.6,6.1,56.7S325,562.7,325,562.7
				s21.1-25.9,25.2-68.8l-28.3-5.1c0,0,1.9,29.4-10.4,53.3s-23.7,37.6-23.7,37.6s-3.2,4,1.5,3.8c4.7-0.2,29-0.2,41.3,1.5
				s19,3.8,19,3.8s4.3-1.7,11.9-4.2v21.3l-60.9,2.2c0,0-0.3,5.6,2.2,17.4C305.4,637.2,316,641,316,641s-1.5,9,6.7,24.7
				c8.2,15.8,25.6,24,25.6,24s-2.4-0.2-8.5-1.3c-6.1-1.1-17-6.2-35.4-0.3c-18.4,5.9-30.1,2-30.1,2c8.5,11.1,21,10.5,34.4,8.9
				c13.4-1.6,20.3,3.9,37.1,2.9c16.7-1,33.8-13.3,53.7-17.4c19.9-4.1,22.5,5.8,44.9,8.7c22.4,2.9,33.9-11.6,54-11.4
				c20.1,0.2,37.2,10.9,47.6,14.8s18.8,4.5,29.5,2.4c10.7-2,12.7,0.8,24.2,1.2c11.6,0.4,23-9.9,23-9.9s-6.3,1.3-14.8,1.5
				c-8.5,0.3-10.7-0.5-19.9-4.6c-9.2-4.1-27.7,1.3-27.7,1.3c4.5-34.7,17.2-64,17.2-64s4.6-1.4,12.1-9.7c7.5-8.3,11.6-23.6,11.6-23.6
				s19.1-20.2,37.6-34.7c1.9-1.5,2.2-4.4,0.6-6.2C637.8,548.5,635.7,548.7,633.9,549.8z M526.7,471.1c5.2,2.7,10.1,8.2,10,17.4
				c-0.2,19-14.4,23.8-24.9,23.8c-3.6,0-6.4,0-8.5,0v9.2v5.5v4.6c0,6.4,6.5,6.8,6.5,6.8h4.2v4h-14.5h-4h-13.6v-4.1h3.8
				c0,0,5.5-0.4,5.5-6.6v-5.2c0,0,0-41.2,0-47.2s-5.3-6-5.3-6h-4v-5h33.5C515.5,468.4,521.2,468.2,526.7,471.1z M457.6,416.5l0.2,0
				c29.5,2.7,55.7,25.4,55.7,25.4l-55.9-5.6V416.5z M449.2,482.6c4.4-3.7,10.1-3.8,14-0.8c3.8,3,3.8,9.9,1.5,13.3
				c-1.9,2.8-6.9,6.8-8.5,8c2.3,3.6,7,9.8,11.2,14.9c2.3-3.3,3.3-5.2,4.1-6.6c0.9-1.6,1.3-3.5,0.7-4.6c-0.6-1.2-1.7-1.1-1.7-1.1
				h-4.8v-3.2h17.9v2.9c0,0-2.8-0.3-4.5,1.4c-1.7,1.6-2.7,4.1-6.2,9.3c-0.9,1.4-2,3-3.3,4.6c2.3,2.7,4.2,4.8,5.1,5.6
				c3.2,2.8,6.6,0,6.6,0h2.7v1.9c0,0-2,2.6-4.8,4c-3.3,1.7-8.3,0.7-11.2-2c-0.7-0.6-1.8-1.9-3.3-3.7c-2.5,2.6-5.2,4.7-7.7,6.2
				c-5.8,3.5-16.4,1.4-18.6-8.9s5.2-16.4,8.7-18.5c0.3-0.2,0.6-0.4,1-0.6c-1.7-2.7-3.3-5.7-3.9-8
				C442.9,491.1,444.8,486.3,449.2,482.6z M440.9,568.9c2.3-0.1,4.7-0.2,7-0.3v41.5c-4.5,0.4-9,0.8-13.4,1.2L440.9,568.9z
				 M429,611.8c-3.5,0.3-7,0.6-10.3,0.9c2.8-13.7,8.3-34.8,10.4-42.8c2.3-0.2,4.6-0.4,6.9-0.6C433.1,582.7,430.1,603.7,429,611.8z
				 M448.5,416.1v19.5l-51.7-5.1C405.7,423.7,423.8,415.8,448.5,416.1z M388.8,518.7h3.7c0,0-0.1,11.7,6,16.1
				c6.1,4.4,16.4,5.3,21.6,0.3c5.2-4.9,4-13.8,0.9-17c-3.2-3.2-7.8-5.8-13-8.2c-5.2-2.4-15.4-7.2-17.5-18.1c-2.1-10.9,4-19,10-22.5
				c7.3-4.3,21-4,29.3,1.5l0.1,16.9h-3.3c0,0,0.3-8.1-4.2-12.4c-4.4-4.4-12.7-4.7-17.8-1c-4.8,3.5-5.6,12.3,0,16.9
				c5.6,4.6,10.1,6.7,16,10c5.9,3.3,13.1,7.9,13.1,19.9s-6.7,19.9-18.2,22.2c-11.4,2.3-22.6-1.9-26.7-5V518.7z M369.7,581.9
				c13.5-4,32.7-8.8,54.3-11.4c-4.2,12.3-8.5,33.1-10.4,42.7c-17,1.5-29.2,2.6-29.2,2.6l-0.1-10.8l-14.6,0.5V581.9z M369.7,673.1
				l-13.4,1v-14.3l13.4-0.9V673.1z M410.3,670.1l-13.6,1v-13.9l13.6-0.9V670.1z M447.9,667.4l-13.5,1v-13.6l13.5-0.9V667.4z
				 M485.3,664.6l-13.6,1v-13.3l13.6-0.9V664.6z M530.3,631.8c-91.1,15.8-190,16.3-202.2,16.3c-0.8,0-1.2,0-1.3,0l0-5.4
				c1.1,0,107.6,0.5,204.4-16.5L530.3,631.8z"/>
			<path class="st0" d="M458.3,496.9c2.9-3,3.8-8.9,2-11.8c-1.8-2.9-6.7-3.6-8.7,1.6c-1.7,4.6,0.3,8.9,2.9,13.6
				C455.9,499.2,457.2,498,458.3,496.9z"/>
			<path class="st0" d="M514.4,692.5c-19.5-6.4-35.7,3.8-53.1,7.9c-17.4,4.1-27.2-2.4-42.6-7s-36.1,2.9-51.8,9.6
				c-15.7,6.7-34.2,5.9-34.2,5.9s9.5,7.9,31.7,5.4c22.3-2.4,31.3-9.1,49.6-6.3s25.4,11.8,50,5.1c24.6-6.7,33.8-10.1,52.1-6.1
				c18.2,3.9,44.3,12,54.5,0.8C553.7,708.9,533.9,698.9,514.4,692.5z"/>
			<path class="st0" d="M973.1,600.9l-15.2,32.4h6.5l3.3-7.5h16.9l3.4,7.5h6.6l-15.3-32.4H973.1z M969.8,621.1l6.3-14.2l6.4,14.2
				H969.8z"/>
			<path class="st0" d="M819,600.9l-15.2,32.4h6.5l3.3-7.5h16.9l3.4,7.5h6.6l-15.3-32.4H819z M815.8,621.1l6.3-14.2l6.4,14.2H815.8z
				"/>
			<path class="st0" d="M763,612.4c0-7.2-5.5-11.5-14.4-11.5h-13.9v32.4h6.3v-9.4h7.6c0.4,0,0.9,0,1.3,0l6.9,9.5h6.8l-7.8-10.7
				C760.4,621,763,617.3,763,612.4z M748.3,618.9H741V606h7.4c5.5,0,8.4,2.4,8.4,6.4S753.8,618.9,748.3,618.9z"/>
			<polygon class="st0" points="1043.5,625.7 1034.9,600.9 1029.1,600.9 1020.3,625.5 1011.9,600.9 1005.4,600.9 1016.6,633.3 
				1023.3,633.3 1031.9,609.3 1040.2,633.3 1046.9,633.3 1058.1,600.9 1052.1,600.9 			"/>
			<rect x="781.6" y="600.9" class="st0" width="6.3" height="32.4"/>
			<polygon class="st0" points="862.7,600.9 856.4,600.9 856.4,633.3 880.4,633.3 880.4,628.2 862.7,628.2 			"/>
			<polygon class="st0" points="928.1,600.9 921.8,600.9 921.8,633.3 945.8,633.3 945.8,628.2 928.1,628.2 			"/>
			<path class="st0" d="M1189.8,612.4c0-7.2-5.5-11.5-14.4-11.5h-13.9v32.4h6.3v-9.4h7.6c0.4,0,0.9,0,1.3,0l6.9,9.5h6.8l-7.8-10.7
				C1187.2,621,1189.8,617.3,1189.8,612.4z M1175.1,618.9h-7.4V606h7.4c5.5,0,8.4,2.4,8.4,6.4S1180.6,618.9,1175.1,618.9z"/>
			<polygon class="st0" points="1086.1,616.7 1076.2,600.9 1069.4,600.9 1082.7,622 1082.7,633.3 1089,633.3 1089,621.9 
				1102.3,600.9 1096.1,600.9 			"/>
			<polygon class="st0" points="1123.8,619.3 1140.1,619.3 1140.1,614.4 1123.8,614.4 1123.8,605.9 1142.2,605.9 1142.2,600.9 
				1117.5,600.9 1117.5,633.3 1142.9,633.3 1142.9,628.3 1123.8,628.3 			"/>
			<path class="st0" d="M1212.5,609.8c0-2.5,2.1-4.4,7.4-4.4c3,0,6.3,0.8,9.3,2.5l2-4.7c-3-1.9-7.2-2.9-11.3-2.9
				c-9.3,0-13.6,4.4-13.6,9.7c0,12,20.1,7.5,20.1,14.4c0,2.4-2.2,4.2-7.5,4.2c-4.2,0-8.5-1.5-11.2-3.6l-2.2,4.7
				c2.8,2.3,8.1,3.9,13.3,3.9c9.3,0,13.7-4.4,13.7-9.6C1232.6,612.2,1212.5,616.7,1212.5,609.8z"/>
			<polygon class="st0" points="689.6,606 700.9,606 700.9,633.3 707.2,633.3 707.2,606 718.4,606 718.4,600.9 689.6,600.9 			"/>
			<path class="st0" d="M1084.1,473.5h-32.2v4.1c8.2,0.3,9.5,2.1,9.5,11.8v47.7c0,9.8-1.6,11.6-10.6,12v4h37.6v-4
				c-11.9,0-13.8-1.9-13.8-12.5v-18.1v-5.8v-32.1c0-1,0.6-1.8,1.7-1.8h7.1c11.1,0,16.2,5.5,16.2,16.9s-6.3,17-18.8,17h-3.5v5.8h5
				c22,0,31.9-9.4,31.9-23.6C1114.2,481.2,1103.8,473.5,1084.1,473.5z"/>
		</g>
	</g>
</g>
</svg>
