<?xml version="1.0" encoding="utf-8"?>
<!-- Generator: Adobe Illustrator 24.3.0, SVG Export Plug-In . SVG Version: 6.00 Build 0)  -->
<svg version="1.1" id="Layer_2" xmlns="http://www.w3.org/2000/svg" xmlns:xlink="http://www.w3.org/1999/xlink" x="0px" y="0px"
	 viewBox="0 0 1024 1024" style="enable-background:new 0 0 1024 1024;" xml:space="preserve">
<style type="text/css">
	.st0{fill:#084F89;}
</style>
<g>
	<path class="st0" d="M442.8,670.3c24.5,3.7,34,15.3,67,6.7c33-8.7,45.3-13.1,69.8-8s59.4,15.6,73.1,1c-22.5,1.5-49-11.5-75.2-19.8
		s-47.8,5-71.2,10.3c-23.3,5.3-36.5-3.1-57.1-9.1s-48.4,3.8-69.5,12.4c-21.1,8.7-45.9,7.7-45.9,7.7s12.7,10.2,42.5,7.1
		C406.2,675.3,418.3,666.6,442.8,670.3z"/>
	<path class="st0" d="M592.8,379.8c-3.2-14.3-16.3-14.5-16.3-14.5h-10.4v43.2c2.3,0,5.9,0,11.2,0C589.2,408.6,596,394.2,592.8,379.8
		z"/>
	<path class="st0" d="M506.8,395.5c3.8-4,5-11.6,2.6-15.3c-2.4-3.7-8.9-4.7-11.4,2.1c-2.3,6,0.3,11.5,3.8,17.6
		C503.6,398.5,505.4,397,506.8,395.5z"/>
	<path class="st0" d="M499.6,435.4c7.7,1,11.9-3.5,13-4.7c-5.9-7.2-12.9-16.3-12.9-16.3s-1.8-2.2-4.1-5.5c-1.9,1.7-4,3.9-5.8,7.8
		C486.5,423.8,490.7,434.3,499.6,435.4z"/>
	<path class="st0" d="M301.7,658.5c18-2.1,27.2,5.1,49.7,3.8c22.4-1.3,45.3-17.3,71.9-22.7s30.2,7.5,60.2,11.3
		c30,3.8,45.4-15.1,72.3-14.9s49.8,14.2,63.8,19.2s25.2,5.8,39.5,3.2c14.3-2.7,17,1,32.5,1.5s30.8-12.8,30.8-12.8s-8.5,1.7-19.8,2
		c-11.3,0.3-14.3-0.7-26.7-6s-37.2,1.7-37.2,1.7c6-45.2,23-83.3,23-83.3s6.2-1.8,16.2-12.7c10-10.8,15.5-30.7,15.5-30.7
		s88.4-64.2,91.7-66.6c3.2-2.4,5.3-5.7,3.6-6.8c-1.8-1.1-4.3-2.6-9,0c-4.7,2.6-134.6,79.1-134.6,79.1s-36.7,9-79.8,12.5
		c-15,1.2-39.3,3.3-64.5,5.5v-53c68.1,0.5,104.4,21.6,107.9,30.7c0,0,10.8-5.4,23.6-30.8c12.8-25.3,10.7-52.3,10.7-52.3
		s2.7,10.7,5.6,30c2.9,19.3,3.2,27.7,3.2,27.7s17.8-19.8,42.2-26.8s46-4.4,46-4.4s-33.8-43.1-86.2-94.9
		C601.4,316,569,304.9,569,304.9s10.9-26.3,4.9-45.7c-6-19.3-18.8-27.2-18.8-27.2s4.7-4.7-3-6.8c-3-0.8-25.3-3.6-51.4-6.5v-63.1
		c0-2.9-2.4-5.3-5.3-5.3c-2.9,0-5.3,2.4-5.3,5.3v8.4c-3.6,1.4-11.9,4.3-25.8,7.9c-19.6,5.1-38.4,2.6-38.4,2.6s10.8,15.2,37.8,19.1
		c13.9,2,22,2.3,26.4,2v21.9c-38.3-4.3-80-8.8-80-8.8s-2.7-0.4-3.2,1.9c-0.5,2.3,3.3,3.2,8,9.3c4.7,6.1,29.8,46.7-9.2,88.4l6.3-18.1
		l-30.2-3.6c0-6.7,0-20.5,0-25.1c0-6.1-6.1-6.4-8.6-6.3c-2.4,0.1-2.1,2-2.1,2v2.8v25.4l-40.8-4.8c0,0-4.1-0.2-2.1,3.2
		s12.4,28.6,7.3,50.9c-5.2,22.3-17.3,39.7-17.3,39.7s-3.5,4.2,1.2,5.2c4.7,1,39.2,5.4,39.2,5.4s6.3-29.9-0.3-61.2
		c0,0,14.9,25.6,8.2,73.8c-6.7,48.2-42.7,83.8-42.7,83.8s28.3-33.8,33.8-89.6l-37.9-6.7c0,0,2.6,38.2-13.9,69.3
		c-16.4,31.1-31.8,48.9-31.8,48.9s-4.3,5.2,2,5c6.3-0.2,38.9-0.2,55.3,1.9c16.4,2.1,25.4,4.9,25.4,4.9s5.8-2.3,15.9-5.5v27.8
		l-81.7,2.9c0,0-0.4,7.3,3,22.7c3.4,15.3,17.7,20.3,17.7,20.3s-2,11.7,9,32.2s34.3,31.2,34.3,31.2s-3.2-0.2-11.4-1.7
		c-8.2-1.4-22.8-8.1-47.4-0.4c-24.7,7.7-40.3,2.6-40.3,2.6C267,661.4,283.7,660.6,301.7,658.5z M383.5,624.8l-18,1.3v-18.6l18-1.1
		V624.8z M438,620.9l-18.2,1.3v-18.1l18.2-1.1V620.9z M488.3,617.4l-18.1,1.3v-17.7l18.1-1.1V617.4z M538.5,613.8l-18.2,1.3v-17.3
		l18.2-1.1V613.8z M596.8,361.9c6.8,3.5,13.3,10.7,13.2,22.7c-0.3,24.8-19,31-32.8,31c-4.8,0-8.4,0-11.2,0v12v7.2v6
		c0,8.4,8.6,8.8,8.6,8.8h5.5v5.3h-19.1h-5.2h-17.9v-5.4h5c0,0,7.2-0.5,7.2-8.6v-6.7c0,0,0-53.6,0-61.5s-7-7.8-7-7.8h-5.2v-6.5H582
		C582,358.4,589.6,358.2,596.8,361.9z M501.4,290.9c0.1,0,0.1,0,0.2,0c39.6,3.6,74.7,33.1,74.7,33.1l-74.9-7.2V290.9z M494.8,377
		c5.8-4.8,13.3-5,18.4-1.1c5,3.9,5,12.9,2,17.3c-2.5,3.7-9,8.8-11.2,10.4c3,4.6,9.3,12.7,14.8,19.4c3.1-4.3,4.4-6.8,5.3-8.5
		c1.1-2.1,1.8-4.5,1-6c-0.8-1.5-2.3-1.5-2.3-1.5h-6.3v-4.2H540v3.7c0,0-3.7-0.4-6,1.8c-2.3,2.1-3.6,5.3-8.1,12.1
		c-1.2,1.8-2.7,3.8-4.3,5.9c3,3.5,5.5,6.2,6.8,7.3c4.2,3.6,8.7,0,8.7,0h3.5v2.4c0,0-2.6,3.4-6.3,5.2c-4.4,2.3-10.9,0.9-14.7-2.6
		c-0.9-0.8-2.4-2.5-4.3-4.8c-3.2,3.3-6.8,6.1-10.1,8.1c-7.6,4.5-21.6,1.8-24.5-11.5c-2.9-13.3,6.8-21.4,11.4-24.1
		c0.4-0.2,0.9-0.5,1.3-0.8c-2.2-3.5-4.4-7.4-5.1-10.4C486.6,387.9,489,381.8,494.8,377z M478.9,489.2c3.1-0.2,6.3-0.3,9.4-0.4v54
		c-6.1,0.5-12.1,1-18,1.6L478.9,489.2z M463,545c-4.7,0.4-9.3,0.8-13.8,1.2c3.8-17.8,11.2-45.3,14-55.7c3.1-0.3,6.1-0.6,9.2-0.8
		C468.5,507.2,464.5,534.5,463,545z M489.2,290.3v25.3l-69.3-6.7C431.7,300.2,456,289.9,489.2,290.3z M415.3,423.9h4.9
		c0,0-0.1,15.3,7.8,21s21.6,6.8,28.4,0.4s5.3-18,1.1-22.1c-4.2-4.1-10.3-7.5-17.1-10.7c-6.8-3.1-20.2-9.3-23-23.6
		s5.3-24.7,13.2-29.3c9.6-5.6,27.7-5.1,38.6,2l0.1,22h-4.4c0,0,0.4-10.5-5.5-16.2c-5.8-5.7-16.8-6.2-23.5-1.3c-6.4,4.6-7.4,16,0,22
		c7.4,5.9,13.3,8.7,21.1,13c7.8,4.3,17.2,10.3,17.2,25.9s-8.8,25.9-23.9,28.9c-15.1,3-29.8-2.5-35.1-6.6V423.9z M383.5,506.1
		c18.1-5.2,43.8-11.5,72.8-14.9c-5.6,16-11.4,43-13.9,55.6c-22.8,2-39.2,3.4-39.2,3.4l-0.1-14.1l-19.6,0.7V506.1z M327.7,592.2
		c-1,0-1.6,0-1.7,0l0-7c1.4,0,144.2,0.6,274-21.5l-1.3,7.3C476.7,591.5,344.1,592.2,327.7,592.2z"/>
	<polygon class="st0" points="236.3,844.3 247.7,844.3 247.7,873.1 255.9,873.1 255.9,844.3 267.3,844.3 267.3,837.6 236.3,837.6 	
		"/>
	<path class="st0" d="M312.9,850.5c0-8-5.9-12.9-15.4-12.9h-15.4v35.5h8.2v-9.9h7.1h0.4l6.8,9.9h8.8l-8-11.4
		C310.2,859.7,312.9,855.8,312.9,850.5z M297,856.7h-6.7v-12.4h6.7c5,0,7.6,2.3,7.6,6.2C304.6,854.3,302,856.7,297,856.7z"/>
	<rect x="329.8" y="837.6" class="st0" width="8.2" height="35.5"/>
	<path class="st0" d="M368.1,837.6l-15.8,35.5h8.4l3.1-7.6h16.5l3.1,7.6h8.6l-15.9-35.5H368.1z M366.4,859.3l5.6-13.6l5.6,13.6
		H366.4z"/>
	<polygon class="st0" points="414.4,837.6 406.2,837.6 406.2,873.1 432.2,873.1 432.2,866.4 414.4,866.4 	"/>
	<polygon class="st0" points="480.3,837.6 472,837.6 472,873.1 498.1,873.1 498.1,866.4 480.3,866.4 	"/>
	<path class="st0" d="M524.6,837.6l-15.8,35.5h8.4l3.1-7.6h16.5l3.1,7.6h8.6l-15.9-35.5H524.6z M523,859.3l5.6-13.6l5.6,13.6H523z"
		/>
	<polygon class="st0" points="593.9,862.8 586.3,837.6 579.2,837.6 571.4,862.6 563.9,837.6 555.9,837.6 566.8,873.1 575,873.1 
		582.5,849.1 589.8,873.1 598.1,873.1 609,837.6 601.6,837.6 	"/>
	<polygon class="st0" points="640.1,853.4 630.6,837.6 621.9,837.6 635.6,860.4 635.6,873.1 643.9,873.1 643.9,860.5 657.6,837.6 
		649.6,837.6 	"/>
	<polygon class="st0" points="681.5,858.3 697.9,858.3 697.9,851.9 681.5,851.9 681.5,844.2 700.1,844.2 700.1,837.6 673.3,837.6 
		673.3,873.1 700.8,873.1 700.8,866.5 681.5,866.5 	"/>
	<path class="st0" d="M748.5,850.5c0-8-5.9-12.9-15.4-12.9h-15.4v35.5h8.2v-9.9h7.1h0.4l6.8,9.9h8.8l-8-11.4
		C745.9,859.7,748.5,855.8,748.5,850.5z M732.7,856.7H726v-12.4h6.7c5,0,7.6,2.3,7.6,6.2C740.2,854.3,737.7,856.7,732.7,856.7z"/>
	<path class="st0" d="M771.6,847.6c0-2.2,1.9-4.1,6.7-4.1c3.1,0,6.5,0.9,9.8,2.8l2.5-6.2c-3.3-2.1-7.9-3.1-12.3-3.1
		c-10.1,0-15,5-15,11.1c0,13.2,20.6,8.6,20.6,15.3c0,2.2-2,3.8-6.8,3.8c-4.3,0-8.7-1.5-11.7-3.7l-2.8,6.2c3.1,2.4,8.8,4.1,14.5,4.1
		c10.1,0,15.1-5.1,15.1-11C792.2,849.7,771.6,854.2,771.6,847.6z"/>
	<path class="st0" d="M211.8,751.5l-9.6-5c-11.1-5.5-15.9-9.2-15.9-17c0-7.5,5.9-12,13.5-12c9.7,0,16.9,6.8,20.3,19.8h3.9l-1-24.8
		h-2.5l-2.4,5.6c-5.7-5-11.6-7.4-18.8-7.4c-14.7,0-25.2,10.7-25.2,25.2c0,11.6,5.7,18.7,17.3,24.7l13.2,6.6
		c10.1,5.2,13.5,9.3,13.5,16.2c0,9.3-5.9,14.1-16.7,14.1c-13.1,0-22.9-8.8-24.8-23.5h-3.9l1.5,28.5h2.5l2.6-6.6
		c5.7,4.9,13.1,8.4,22.7,8.4c16,0,29-10.4,29-26.6C231.1,765.6,224.5,757.8,211.8,751.5z"/>
	<path class="st0" d="M305.5,771.7c0-18.2-13.8-31.5-31.8-31.5c-17.9,0-31.5,13.2-31.5,31.5c0,19.2,13.6,32.6,31.5,32.6
		C291.7,804.3,305.5,790.8,305.5,771.7z M273.7,797.7c-10.1,0-16-9.9-16-25.8c0-15.2,5.9-25.4,16-25.4s16.5,10.4,16.5,25.4
		C290.1,787.6,283.9,797.7,273.7,797.7z"/>
	<path class="st0" d="M341.7,752.4c3.8,0,5.4,4.5,9.7,4.5c3.8,0,6.6-3.2,6.6-8.1c0-4.2-3-7.2-8.2-7.2c-6.7,0-13.5,5.5-17.2,13.5
		h-0.3l-1.5-12.9l-19.5,4.2v3.8c8.4,0,9.2,1.5,9.2,20.6v13.3c0,11-0.9,12.3-8.9,12.8v4.3h32.1v-4.3c-9.4-0.2-10.5-1.3-10.5-12.9
		v-7.1C333.3,761.4,336.9,752.4,341.7,752.4z"/>
	<path class="st0" d="M385.4,783.2v-41.8l-23.5,4.3v3.8c6.6,0,8.6,0.8,9.2,4.4c0.5,2,0.7,7.6,0.7,16.2V784c0,10.4-1.5,12.5-9.7,12.9
		v4.3h32.7v-4.3C386.7,796.5,385.4,794.9,385.4,783.2z"/>
	<path class="st0" d="M368.6,719.8c0,5,3.8,9.2,8.7,9.2c5,0,8.9-4.2,8.9-9.2c0-5.2-3.9-9.3-8.9-9.3
		C372.4,710.5,368.6,714.5,368.6,719.8z"/>
	<path class="st0" d="M442.1,796.9v4.3h31.8v-4.3c-8.3-0.5-9.1-1.7-9.1-13.6v-16.7c0-18.1-8.8-25.2-21.8-25.2
		c-8.2,0-15.2,3.5-20.2,10.2h-0.4l-1.4-10.2l-20.3,4.3v3.6c6.6,0,8.2,0.6,9.1,4.5c0.4,1.9,0.6,7.5,0.7,16.1v14.3
		c-0.1,11.1-1.2,12.3-9.5,12.9v4.2h32v-4.3c-8-0.5-8.7-1.5-8.6-13.6v-15.6c-0.1-13,5-19.6,14.1-19.6c8.6,0,12.4,5.4,12.4,20.5V784
		C451,795.1,449.8,796.5,442.1,796.9z"/>
	<path class="st0" d="M643.8,783.4v-20.2h8.5c24.4,0,35.4-10.5,35.4-26.2c0-15.3-11.5-23.9-33.3-23.9h-35.7v4.6
		c9,0.4,10.6,2.4,10.6,13.2V784c0,10.9-1.7,12.9-11.7,13.3v4.5h41.6v-4.5C645.9,797.3,643.8,795.2,643.8,783.4z M643.8,721
		c0-1.1,0.7-2,1.9-2h7.9c12.3,0,18,6.1,18,18.8s-7,18.9-20.9,18.9h-6.8V721z"/>
	<path class="st0" d="M578.8,790.6l-2.3-0.7c-1.9,4.1-4.3,5.2-7.3,5.2c-4.7,0-9.6-3.1-15.2-10.8l12.4-20.1c2.7-4.3,4.8-5.8,10.2-5.8
		v-3.8h-21.4v3.8c4.1,0,5.7,0.9,5.7,3c0,3.3-3.8,10.3-9.9,18.5l-14.3-20.2c10.8-6.1,15-12.6,15-20.4c0-9.4-6.7-16.5-16.2-16.5
		c-11.3,0-19.1,8.2-19.1,18.4c0,6.6,2.2,12.8,6.4,19.4c-13.9,7-19,14.7-19,24.1c0,11.3,7.3,18.4,18.9,18.4c8.6,0,16.4-3.9,22.9-10.1
		c5.9,7.5,11,10.1,18,10.1C571.2,803.4,577.2,798.2,578.8,790.6z M535.3,729.4c4.3,0,6.5,3.7,6.5,9.3c0,5.7-2.7,11.2-8.3,16.3
		c-3.4-5.2-5.2-10.6-5.2-16C528.3,732.8,531.1,729.4,535.3,729.4z M528.2,795.6c-6.2,0-11.2-4.8-11.2-13.3c0-6.6,3.7-11.9,9.5-16.1
		l16.4,23.3C538.4,793.4,532.9,795.6,528.2,795.6z"/>
	<path class="st0" d="M735.5,745.4c5.4,0,7.9,0.6,7.9,4.1c0,2.7-1.5,7.6-4.8,15.7l-8.3,21.9h-0.8l-10.9-30c-1.2-3.5-2-6.1-2-7.7
		c0-3.1,2.1-4.1,7.3-4.1V741h-30.4v4.3c5.4,0.4,6.7,1.6,10.3,10.3l19.9,48.3l-3.1,6.9c-2.2,5.3-6.1,5.5-12.1,6.6
		c-6.2,1-8.6,3.7-8.6,7.7c0,4.2,3,7.1,8,7.1c6.4,0,12.6-3.8,16.1-12.6l22-55c7-17.1,8.8-19.2,14.1-19.2V741h-24.4V745.4z"/>
	<path class="st0" d="M784.3,783.8v-75.2l-22.9,4.2v3.9c6.3,0,8.2,0.8,9,4.3c0.4,2.1,0.8,7.7,0.8,16.1v47.5
		c0,10.4-1.6,12.4-9.5,12.8v4.3h31.9v-4.3C785.5,797.1,784.4,795.4,784.3,783.8z"/>
	<path class="st0" d="M809.8,761.5l-0.3,5.8h4.1c0.1-2.1,0.3-4,0.7-5.8H809.8z"/>
	<path class="st0" d="M809.5,767.3l0.3-5.8h4.4c1.8-10.1,6.8-14.5,13.5-14.5c6.6,0,9.9,4.7,9.9,11.4c0,2.8-0.9,3.1-6.8,3.1h-16.6
		c-0.3,1.8-0.6,3.7-0.7,5.8h34.2c3,0,3.4-0.4,3.4-2.7c0-15-7.9-23.6-22.9-23.6c-18.1,0-29.7,12.2-29.7,31.3
		c0,19.2,11.2,30.3,28.6,30.3c9.4,0,17.8-3.9,23.4-10.6l-2.9-3.6c-5.2,5-10.7,7.6-17.4,7.6c-11.4,0-16.8-9-16.8-25.1
		c0-1.3,0-2.5,0.1-3.6H809.5z"/>
</g>
</svg>
