<?xml version="1.0" encoding="utf-8"?>
<!-- Generator: Adobe Illustrator 24.3.0, SVG Export Plug-In . SVG Version: 6.00 Build 0)  -->
<svg version="1.1" id="Layer_2" xmlns="http://www.w3.org/2000/svg" xmlns:xlink="http://www.w3.org/1999/xlink" x="0px" y="0px"
	 viewBox="0 0 1024 1024" style="enable-background:new 0 0 1024 1024;" xml:space="preserve">
<style type="text/css">
	.st0{fill:#FFFEFC;stroke:#000000;stroke-width:2;stroke-miterlimit:10;}
</style>
<g>
	<path class="st0" d="M641.1,814.2c-24.2-5.1-27.3-8.7-61.1-16.2c-33.8-7.6-50.6,9.6-79.2,12.7c-28.7,3.2-41-5.2-67.3-10
		c-26.3-4.8-46.5,4.2-72.5,13.8c-26,9.7-62.2,13.2-62.2,13.2c16.6,25.3,67,14.3,96.1,4.7c29.1-9.6,48.4,0.2,77.6,5.3
		c29.1,5.1,49.6,0.2,76.7-8.9c27.1-9.1,33.8-1.3,69.8,3.6s55.6-13.3,55.6-13.3S665.3,819.3,641.1,814.2z"/>
	<path class="st0" d="M822.6,544.3c-4.8-2.5-14,4-24.7,8.8c-10.7,4.8-80.6,53.7-103.7,68.6c-23.1,14.9-43.8,24.7-68.7,28
		c-14.4,1.9-95,11-163.4,18.8l-3.2-58.9c2.9-0.2,5.8-0.3,8.6-0.5c61.6-2.7,133.3,23.7,151.3,36.3c0,0,20.8-21.5,29.2-42.8
		c8.3-21.3,11.3-40.3,11.3-39.8s4,55.2,4,55.2s28.5-23.5,56.8-35.8c28.3-12.3,50.7-20,50.7-20s-39.7-54.7-88.3-104.3
		c-48.7-49.7-92.3-69.3-92.3-69.3s12.3-16.6,10.3-45c-2-28.4-16.9-37.8-18.9-45.1c-2-7.3-0.9-14.9-0.9-14.9l-76.2-5.5
		c0-23.6,0-76.3,0-81.7c0-7,0.7-15.5-8.8-15.5s-10.2,10.3-10.2,10.3l-0.1,6.1c-6.9,5-19.1,12.5-35.3,16.1
		c-25.7,5.7-62.5,1.2-62.5,1.2s21.5,21.8,52.8,30.3c24.8,6.7,39.3,5.8,44.3,5.2l-0.3,26.6l-117.8-8.4c0,0-8.7,0.4-4.2,4.9
		c4.4,4.4,23.6,21.1,23.8,60.2c0.2,39.1-21.1,53.8-21.1,53.8s3.9-12.4,3.8-24.6l-25.2-1.7l-2.5-23.5c0,0-0.3-15.2-11.3-14.8
		c-11,0.3-9.5,10.5-9.5,10.5s1.6,19.6,2.2,26.4l-47.2-3.2c0,0-5.8-0.7-4.5,3.2c1.3,3.8,19.3,21.1,13.7,53.5s-21.3,56.9-24.9,62
		s-7.1,9.8,3.6,11.1c10.7,1.3,47.8,3.3,47.8,3.3s2.7-0.1,3-4.1s3-57.5,3.8-68.7c0,0,4.9,24.3-0.2,80.1c-5.1,55.8-30.4,91.8-40,100.2
		c0,0,16-34,22.3-57.2c6.3-23.2,8.3-41.7,8.3-41.7l-40.5-3.3c0,0-1.3-0.7-2.8,3.3s-15.3,58.4-26.7,83.3
		c-11.3,24.9-28.4,40-30.4,43.6s3.8,4,13.8,4c7.8,0,68.6,0,95.1,0c0.5,9.1,1.3,21.6,1.8,28.7l-83.5,2.4c0,0-5.9-0.2-6.1,5.6
		c-0.2,5.8-2.7,14,3.8,29.7s19.2,23.8,19.2,23.8s11.2,33.5,20.5,48.8c9.3,15.3,26.7,23,26.7,23s-23.5-5.8-41.5-4.8s-33.5,8-44.5,8.5
		s-14,0.7-14,0.7s6,13.7,25.8,16.8c19.8,3.2,32.3-1.8,56.5,1.8c24.2,3.7,42.3,5.7,63.7-3.9s50.2-25.8,88.4-18.4
		c38.2,7.3,56.2,10.2,86.4,2.9c30.2-7.3,54.9-11.1,80.9-3.6s50.9,20.4,90.4,20.9c39.6,0.4,53.1-20.4,53.1-20.4s-12.4,6-28.2,1.1
		c-15.8-4.9-48-13.1-70.4-6.9c0,0,24.4-90.2,26.7-93.6c2.2-3.3,12.7-8.4,21.8-21.8c9.1-13.3,10.4-20.7,13.6-24
		c3.1-3.3,94-72.2,105.5-82C824.8,554.3,827.4,546.8,822.6,544.3z M444.4,670.5c-6.3,0.7-12.4,1.4-18.2,2.1
		c1.9-13.1,6.3-44.2,8.7-60.9c3.2-0.3,6.4-0.6,9.6-0.9V670.5z M508.2,554.5c-2.7-2.7-3.6-5.3-5.9-3.4c-2.3,1.9-6.8,9.1-18.4,10.6
		s-31.1-3.7-29.8-24.1c1.3-20.4,19.8-31.8,19.8-31.8c1.6-1.1-0.5-1-2.3-3.6c-1.8-2.6-6.6-8.4-5.7-16.8c0.9-8.3,6.3-16.9,15.6-17.8
		c9.2-0.9,19.7,3,22.4,12.1c2.8,9.1-6.9,21.9-10,24.9c-3.1,3-0.2,3.3,2.9,7.3c3.1,4,4.3,8,5.8,10.2s4.3,1,6.7-0.7
		c2.3-1.7,5.1-3.7,3.4-6c-1.7-2.3-2.8-3.3-3.3-8.1s6.6-6.2,12.4-5.2c5.9,1,8.9,6.8,7.1,12.1c-1.8,5.3-11.4,14.7-13.2,17.6
		s-0.3,6.9,3.2,11.9s5.8,6.4,10.6,6.6s8.7,1.3,8.3,4.4c-0.3,3.1-7.6,3.2-14.4,3.2C516.4,558,510.9,557.2,508.2,554.5z M608.9,449.8
		c13.7,8,22.3,21.3,21,39.5c-1.3,18.2-21.3,29.8-30.5,30.3c-9.2,0.5-31.2,1-31.2,1l-0.2,40.7c0,0,2.1,1.4,5.3,2.2s13.5,1.8,16.8,0.2
		c3.3-1.6,3.8,0.1,2.8,2.6s-2.7,5.8-7.3,6.1c-4.7,0.2-40.4,1.1-44.2,0.9c-3.8-0.2-9.9,0-10.4-2.3c-0.4-2.3,4-6.5,7.4-7.9
		c3.4-1.4,6.2-1.1,9.3-1.6c3.1-0.5,5.1-1.8,5-3.9c-0.1-2.1-3.3-107.7-3.3-107.7c0-1.5-0.7-1.2-0.7-1.2s-13.5,0.3-18.3,0.3
		s-4.6-1.3-3.3-3.8c1.2-2.4,2-3.4,3.3-3.6s13.5-0.2,28.6,0C574.3,441.8,595.3,441.8,608.9,449.8z M492.8,373.2
		c69.3,6,91.3,36.3,91.3,36.3l-190.7-19.3C393.4,390.2,423.4,367.2,492.8,373.2z M376.4,531.5c2.6,0.6,4.6,20.8,6.3,24.2
		c1.8,3.4,10,11.3,27.3,11.4c17.3,0.1,23.3-13.7,23.3-20.4c0-6.8-3.7-16.3-12.2-21.9c-8.6-5.6-31.1-15.2-41-24.9
		c-9.9-9.7-14.3-26.1-6.1-39.3c8.2-13.2,21-22,45.8-20.7c24.8,1.3,28.8,6.3,29.5,10.4c0,0-0.3,14.7-1.4,24c-1.1,9.3-9.9,8-10-1.6
		c-0.1-9.6-6.4-22.8-19.2-24.6s-21.8,1-26.4,11.3s-1,24.1,10.6,30.4s29.2,14.3,38.6,22.1c9.3,7.8,14.3,36.4-3.6,53.8
		c-17.9,17.3-50.9,10.2-56.2,6.9c-5.3-3.3-10-8.8-10.6-13.7c-0.6-4.9-2.4-24.6-2.4-26.4C368.7,530.9,373.9,530.9,376.4,531.5z
		 M337,627.1c15-3.1,49.6-9.8,86.2-14.2l-7.3,60.8c-28.1,3.2-49,5.6-53.9,6.2l-2.2-23.6l-20.5,0.6
		C338.7,648.9,337.6,634.9,337,627.1z M346.9,768.1l-18.8,1.1l-2.5-19.3l21.3-1.2V768.1z M409.5,764.3l-19.2,1.2
		c-0.3-4.3-0.5-13.4-0.6-19.1l19.7-1.1C409.5,750.2,409.5,758.8,409.5,764.3z M457.1,761.4v-18.8l20.1-1.1l0.6,18.6L457.1,761.4z
		 M520.4,757.5v-18.4l21.1-1.2l1.3,18.2L520.4,757.5z M589.9,706.5l-310.7,23.2l-3.8-6.5l317.2-24.5L589.9,706.5z"/>
	<path class="st0" d="M485.5,497.8c1.7,0.9,4.8-1.3,7.7-6.9c2.9-5.6,1.9-13.1-4-16.2c-5.9-3.1-11.6,3.3-12.4,11.2
		C476,493.8,485.5,497.8,485.5,497.8z"/>
	<path class="st0" d="M484,516.5c0,0-2.3-3-4.1-1.1c-1.8,1.9-4.9,8.3-8.2,13.3c-3.3,5-4.3,9.2-2.4,15.2c1.9,5.9,10.7,9.1,18,5.4
		c7.3-3.7,9.6-12.3,8.1-16.9S484,516.5,484,516.5z"/>
	<path class="st0" d="M568.1,512.4c1.7,0,17.4-0.3,25.9-1c8.4-0.7,17.3-10.9,17.3-22.4c0-11.6-3.4-24.4-8-30.1s-13.1-6.7-18.4-7.1
		c-5.3-0.4-14.9,0-14.9,0s-4.3-0.2-4.3,1.6c0,0-1.6,56-1.4,57.4C564.3,512.2,566.4,512.4,568.1,512.4z"/>
</g>
</svg>
