<?xml version="1.0" encoding="utf-8"?>
<!-- Generator: Adobe Illustrator 24.3.0, SVG Export Plug-In . SVG Version: 6.00 Build 0)  -->
<svg version="1.1" id="Layer_2" xmlns="http://www.w3.org/2000/svg" xmlns:xlink="http://www.w3.org/1999/xlink" x="0px" y="0px"
	 viewBox="0 0 1024 1024" style="enable-background:new 0 0 1024 1024;" xml:space="preserve">
<style type="text/css">
	.st0{fill:#07386B;}
</style>
<g>
	<path class="st0" d="M515.7,461.9c4.8-4.8,6.2-13.9,3.2-18.4s-11.1-5.6-14.3,2.5c-2.9,7.2,0.4,13.8,4.7,21.2
		C511.7,465.5,513.9,463.7,515.7,461.9z"/>
	<path class="st0" d="M494.5,487.3c-4.1,8.6,1.1,21.2,12.2,22.5c9.6,1.1,14.9-4.3,16.2-5.7c-7.3-8.6-16.1-19.5-16.1-19.5
		s-2.3-2.7-5.1-6.6C499.3,480,496.7,482.6,494.5,487.3z"/>
	<path class="st0" d="M623.1,443.2c-4-17.2-20.3-17.3-20.3-17.3h-13v51.8c2.9,0,7.3,0,13.9,0C618.6,477.7,627,460.3,623.1,443.2z"/>
	<path class="st0" d="M811.3,508.7c-4.2,2.1-141.9,90.3-141.9,90.3l-152.1,16c0-5.2,0-32.4,0-51.7c18.4-0.1,37.1,0.9,52.8,3.3
		c34.5,5.3,65.9,28.5,65.9,28.5s21.5-16.1,30.1-43.6c8.6-27.5,10.3-42.9,10.3-42.9s8.8,14.9,5.1,48.9c0,0,42.9-37.8,90.9-33
		c0,0-75.7-111.6-176.5-162.9c0,0,10.3-24,5.5-47.2c-4.8-23.2-19.4-33.2-19.4-33.2s5.4-6.4-0.2-6.6l-63.6-5.8v-77.3
		c0-4.1-3.3-7.4-7.4-7.4s-7.4,3.3-7.4,7.4v13.8c-5.1,1.7-20.4,6.7-36.2,9.5c-19.4,3.5-41.1,1.2-41.1,1.2s16.4,19.8,49.7,23.8
		c13.5,1.6,22.1,1.8,27.6,1.4v26.4l-91.4-8.3c0,0-4,0.2-1.1,3.5c2.9,3.3,18.6,9.5,19.9,48.6c1.3,39.1-24.3,56.7-24.3,56.7l8.2-22.1
		l-36.4-3.3v-25c0-3.6-2.9-6.6-6.6-6.6c-3.6,0-6.6,2.9-6.6,6.6v23.8l-45.3-4.1c0,0,11.7,14.9,5.5,49.1
		c-6.1,34.2-20.2,51.6-20.2,51.6l43.6,9.9c0,0,5.8-39.6-1.2-71.1c0,0,12.9,25.5,8,80.3c-5,54.7-40.1,91.9-50.4,98.2
		c0,0,36.5-45.4,42.3-101.7l-41.3-7.5c0,0,7,67.7-51.4,132L365,583v30.2l-81.1,1.7c0,0-0.6,20.8,4,30.5s12.9,10.3,12.9,10.3
		s-0.4,38.9,32.9,61.9c0,0-17.6-0.2-27.1,1.8c-9.5,2-27.4,7.1-48.1,3.3c0,0,13.6,14.6,35.8,13.4c22.2-1.2,23.3-5.4,37.9-3.1
		s27.3,4.1,49.7-6.8s47.6-19,76.8-11c29.2,8,45.1,12.4,73.8,1.5c28.7-10.8,49.7-9.5,68.5-3.8c18.8,5.7,41.3,20.6,60.3,21.2
		c18.9,0.7,21.9-5.2,37-1.9c15.1,3.3,26,3.6,38-0.1c12.1-3.8,17.5-10.8,17.5-10.8s-16.3,3.5-31.8,1.1c-15.6-2.4-26.6-5.2-40.2-5.2
		s-20.9,2.5-20.9,2.5l29-84.7c30.3-16.5,34.7-47.6,34.7-47.6s80.5-62.8,85.7-66.7c5.2-3.9,8.8-6.9,8.6-9.8
		C818.7,508,815.5,506.6,811.3,508.7z M628.1,421.7c8.5,4.2,16.7,12.8,16.5,27.2c-0.3,29.7-23.7,37.1-41,37.1c-6,0-10.5,0-13.9,0
		v14.4v8.6v7.2c0,10.1,10.7,10.6,10.7,10.6h6.9v6.3h-23.9h-6.6h-22.4v-6.5h6.2c0,0,9-0.6,9-10.3v-8c0,0,0-64.3,0-73.7
		c0-9.5-8.7-9.4-8.7-9.4h-6.6v-7.8h55.1C609.6,417.5,619.1,417.2,628.1,421.7z M518.2,347.4c53.2,4.3,82.2,37.8,82.2,37.8l-82.2-8
		V347.4z M523.6,438.5c6.3,4.7,6.2,15.4,2.5,20.8c-3.1,4.4-11.3,10.6-14,12.5c3.7,5.6,11.6,15.2,18.5,23.3c3.8-5.2,5.5-8.1,6.7-10.2
		c1.4-2.5,2.2-5.4,1.2-7.2c-1-1.8-2.9-1.8-2.9-1.8h-7.9v-5.1h29.4v4.5c0,0-4.6-0.5-7.5,2.1c-2.8,2.6-4.5,6.3-10.2,14.6
		c-1.5,2.2-3.3,4.6-5.4,7.1c3.7,4.2,6.8,7.5,8.4,8.8c5.2,4.3,10.9,0,10.9,0h4.4v2.9c0,0-3.2,4-7.8,6.2c-5.5,2.7-13.7,1.1-18.4-3.2
		c-1.1-1-3-3-5.4-5.8c-4,4-8.5,7.4-12.6,9.7c-9.5,5.4-26.9,2.2-30.6-13.8c-3.6-16,8.5-25.6,14.3-28.9c0.5-0.3,1.1-0.6,1.6-0.9
		c-2.8-4.2-5.5-8.8-6.4-12.5c-2.2-8.6,0.8-16,8.1-21.8C507.9,434,517.3,433.8,523.6,438.5z M491.9,564.2c3.9-0.2,7.8-0.4,11.9-0.6
		v52.8l-20.3,2.1L491.9,564.2z M476.8,619.3l-14.1,1.5l13.3-55.2c3.2-0.3,6.5-0.6,9.9-0.9L476.8,619.3z M503.4,346.9v29l-80.7-7.8
		C422.7,368,451.5,346.9,503.4,346.9z M401.4,495.9h6.1c0,0-0.2,18.3,9.8,25.2c9.9,6.9,26.9,8.2,35.5,0.5c8.5-7.7,6.6-21.6,1.4-26.5
		c-5.2-5-12.9-9-21.4-12.8c-8.5-3.7-25.3-11.2-28.8-28.3c-3.5-17.1,6.6-29.6,16.5-35.1c12-6.7,34.6-6.2,48.2,2.3l0.2,26.4h-5.5
		c0,0,0.4-12.6-6.9-19.4c-7.3-6.8-20.9-7.4-29.3-1.6c-7.9,5.5-9.3,19.2,0,26.4c9.3,7.1,16.7,10.4,26.4,15.6s21.5,12.4,21.5,31.1
		s-11,31.1-29.8,34.7c-18.8,3.6-37.2-3-43.9-7.9V495.9z M378.1,582.1c6-1,51.9-9,79.4-14c3.8-0.7,7.9-1.3,12.2-1.8l-13.6,55.1
		l-50.3,5.3v-14.4l-27.7,0.6V582.1z M382.9,700.5l-20.2,1.3v-18.3l20.2-0.9V700.5z M444.8,697.9l-20.2,1.3v-18.7l20.2-0.9V697.9z
		 M503.8,694l-20.2,1.8V677l20.2-1.2V694z M561.5,688.6l-20.2,1.3v-18.3l20.2-1.5V688.6z M634.8,638.7
		c-55.5,7.3-185.4,20.4-219.4,22.5c-35.7,2.1-89.6,3.4-101.8,3.7v-8c12.5-0.3,65.9-1.6,101.3-3.7c34.8-2.1,169.9-15.7,222.4-22.9
		L634.8,638.7z"/>
	<path class="st0" d="M600.8,726.3c-30-9-54.1,0.8-75.8,7c-21.7,6.1-36.5,3.3-62.2-4.1s-51.2-2.5-82.7,8.8
		c-31.5,11.3-50.2,8.1-50.2,8.1s12.4,13.3,46.3,9.3c33.8-4,51.9-15.6,87.1-7.8c35.2,7.8,41.6,11.9,75.9,1.8
		c34.3-10.1,46.1-6.6,65.8-2.7c19.7,4,45.1,17.1,72.6-1.3C647.4,749,630.9,735.3,600.8,726.3z"/>
	<path class="st0" d="M868.9,353.6c-19.4-45.9-47.2-87.1-82.6-122.5c-35.4-35.4-76.6-63.2-122.5-82.6c-47.5-20.1-98-30.3-150-30.3
		c-52,0-102.5,10.2-150,30.3c-45.9,19.4-87.1,47.2-122.5,82.6c-35.4,35.4-63.2,76.6-82.6,122.5c-20.1,47.5-30.3,98-30.3,150
		c0,52,10.2,102.5,30.3,150c19.4,45.9,47.2,87.1,82.6,122.5c35.4,35.4,76.6,63.2,122.5,82.6c47.5,20.1,98,30.3,150,30.3
		c52,0,102.5-10.2,150-30.3c45.9-19.4,87.1-47.2,122.5-82.6s63.2-76.6,82.6-122.5c20.1-47.5,30.3-98,30.3-150
		C899.2,451.7,889,401.2,868.9,353.6z M513.7,874.2c-204.3,0-370.5-166.2-370.5-370.5c0-204.3,166.2-370.5,370.5-370.5
		c204.3,0,370.5,166.2,370.5,370.5C884.2,708,718,874.2,513.7,874.2z"/>
</g>
</svg>
