<?xml version="1.0" encoding="utf-8"?>
<!-- Generator: Adobe Illustrator 24.3.0, SVG Export Plug-In . SVG Version: 6.00 Build 0)  -->
<svg version="1.1" xmlns="http://www.w3.org/2000/svg" xmlns:xlink="http://www.w3.org/1999/xlink" x="0px" y="0px"
	 viewBox="0 0 1024 1024" style="enable-background:new 0 0 1024 1024;" xml:space="preserve">
<style type="text/css">
	.st0{fill:#FFFEFF;}
</style>
<g id="Layer_3">
	<rect width="1024" height="1024"/>
</g>
<g id="Layer_2">
	<g>
		<g>
			<g>
				<path class="st0" d="M599.2,734.8c-30-9-54.1,0.8-75.8,7c-21.7,6.1-36.5,3.3-62.2-4.1c-25.7-7.5-51.3-2.5-82.8,8.8
					c-31.5,11.3-50.3,8.1-50.3,8.1s12.4,13.3,46.3,9.3c33.8-4,51.9-15.6,87.1-7.8c35.2,7.8,41.6,11.9,76,1.8
					c34.3-10.1,46.1-6.6,65.9-2.7c19.7,4,45.1,17.1,72.7-1.3C645.8,757.5,629.2,743.7,599.2,734.8z"/>
				<path class="st0" d="M867.4,361.9c-19.4-45.9-47.2-87.2-82.7-122.6c-35.4-35.4-76.7-63.2-122.6-82.7
					c-47.6-20.1-98.1-30.3-150.1-30.3s-102.6,10.2-150.1,30.3c-45.9,19.4-87.2,47.2-122.6,82.7c-35.4,35.4-63.2,76.7-82.7,122.6
					c-20.1,47.6-30.3,98.1-30.3,150.1c0,52.1,10.2,102.6,30.3,150.1c19.4,45.9,47.2,87.2,82.7,122.6c35.4,35.4,76.7,63.2,122.6,82.7
					c47.6,20.1,98.1,30.3,150.1,30.3s102.6-10.2,150.1-30.3c45.9-19.4,87.2-47.2,122.6-82.7c35.4-35.4,63.2-76.7,82.7-122.6
					c20.1-47.6,30.3-98.1,30.3-150.1C897.7,459.9,887.5,409.4,867.4,361.9z M512,882.7c-204.4,0-370.7-166.3-370.7-370.7
					c0-204.4,166.3-370.7,370.7-370.7c204.4,0,370.7,166.3,370.7,370.7C882.7,716.4,716.4,882.7,512,882.7z"/>
				<path class="st0" d="M621.4,451.4c-4-17.2-20.4-17.3-20.4-17.3h-13V486c2.9,0,7.3,0,13.9,0C616.9,486,625.4,468.6,621.4,451.4z"
					/>
				<path class="st0" d="M514,470.2c4.8-4.8,6.2-13.9,3.2-18.4c-3-4.5-11.1-5.6-14.3,2.5c-2.9,7.2,0.4,13.8,4.7,21.2
					C510,473.8,512.2,472,514,470.2z"/>
				<path class="st0" d="M492.8,495.6c-4.1,8.6,1.1,21.2,12.2,22.5c9.6,1.1,14.9-4.3,16.2-5.7c-7.3-8.6-16.1-19.5-16.1-19.5
					s-2.3-2.7-5.1-6.6C497.6,488.2,495,490.9,492.8,495.6z"/>
				<path class="st0" d="M809.7,517c-4.2,2.1-142,90.4-142,90.4l-152.2,16c0-5.2,0-32.5,0-51.7c18.4-0.1,37.1,0.9,52.8,3.3
					c34.5,5.3,66,28.5,66,28.5s21.5-16.1,30.1-43.6s10.3-43,10.3-43s8.8,14.9,5.1,48.9c0,0,43-37.8,90.9-33
					c0,0-75.7-111.7-176.6-163c0,0,10.3-24,5.5-47.2c-4.8-23.2-19.4-33.2-19.4-33.2s5.4-6.4-0.2-6.6l-63.6-5.8v-77.4
					c0-4.1-3.3-7.4-7.4-7.4s-7.4,3.3-7.4,7.4v13.8c-5.1,1.7-20.4,6.7-36.2,9.5c-19.4,3.5-41.1,1.2-41.1,1.2s16.4,19.8,49.8,23.8
					c13.5,1.6,22.1,1.8,27.6,1.4v26.4l-91.5-8.3c0,0-4,0.2-1.1,3.5c2.9,3.3,18.6,9.5,19.9,48.7c1.3,39.2-24.3,56.7-24.3,56.7
					l8.2-22.1l-36.4-3.3v-25c0-3.6-2.9-6.6-6.6-6.6s-6.6,2.9-6.6,6.6v23.8l-45.4-4.2c0,0,11.7,14.9,5.5,49.1
					c-6.1,34.2-20.2,51.6-20.2,51.6l43.6,10c0,0,5.8-39.7-1.2-71.2c0,0,12.9,25.6,8,80.3s-40.2,91.9-50.4,98.2
					c0,0,36.5-45.5,42.3-101.7l-41.3-7.5c0,0,7,67.7-51.4,132.1l110.3,4.9v30.2l-81.2,1.7c0,0-0.6,20.8,4,30.5
					c4.6,9.7,12.9,10.3,12.9,10.3s-0.4,38.9,32.9,61.9c0,0-17.6-0.2-27.1,1.8c-9.5,2-27.4,7.1-48.1,3.3c0,0,13.6,14.6,35.8,13.4
					c22.2-1.2,23.3-5.4,37.9-3.1c14.6,2.3,27.3,4.1,49.7-6.8c22.4-11,47.6-19,76.8-11c29.2,8,45.1,12.4,73.9,1.5
					c28.8-10.8,49.8-9.5,68.6-3.8c18.8,5.8,41.4,20.6,60.3,21.2s21.9-5.2,37.1-1.9c15.2,3.3,26,3.7,38.1-0.1
					c12.1-3.8,17.5-10.8,17.5-10.8s-16.3,3.5-31.9,1.1s-26.7-5.2-40.3-5.2s-20.9,2.5-20.9,2.5l29-84.7
					c30.3-16.5,34.7-47.6,34.7-47.6s80.6-62.9,85.8-66.8c5.2-3.9,8.8-6.9,8.6-9.8C817.1,516.3,813.9,514.9,809.7,517z M626.5,430
					c8.5,4.2,16.7,12.8,16.5,27.2c-0.3,29.7-23.7,37.2-41,37.2c-6,0-10.5,0-13.9,0v14.4v8.6v7.2c0,10.1,10.7,10.6,10.7,10.6h6.9v6.3
					h-23.9h-6.6h-22.4V535h6.2c0,0,9-0.6,9-10.3v-8c0,0,0-64.3,0-73.8c0-9.5-8.7-9.4-8.7-9.4h-6.6v-7.8H608
					C608,425.7,617.4,425.4,626.5,430z M516.5,355.7c53.2,4.3,82.3,37.9,82.3,37.9l-82.3-8V355.7z M521.9,446.7
					c6.3,4.7,6.2,15.4,2.5,20.8c-3.1,4.4-11.3,10.6-14,12.5c3.7,5.6,11.6,15.2,18.5,23.3c3.8-5.2,5.5-8.1,6.7-10.2
					c1.4-2.5,2.2-5.4,1.2-7.2c-1-1.8-2.9-1.8-2.9-1.8H526V479h29.4v4.5c0,0-4.6-0.5-7.5,2.1c-2.8,2.6-4.5,6.3-10.2,14.6
					c-1.5,2.2-3.3,4.6-5.4,7.1c3.7,4.2,6.8,7.5,8.4,8.8c5.2,4.3,10.9,0,10.9,0h4.4v2.9c0,0-3.2,4-7.9,6.2
					c-5.5,2.7-13.7,1.1-18.4-3.2c-1.1-1-3-3-5.4-5.8c-4,4-8.5,7.4-12.6,9.7c-9.5,5.4-27,2.2-30.6-13.9c-3.7-16,8.5-25.7,14.3-28.9
					c0.5-0.3,1.1-0.6,1.6-0.9c-2.8-4.2-5.5-8.8-6.4-12.5c-2.2-8.6,0.8-16,8.1-21.8C506.2,442.2,515.6,442,521.9,446.7z M490.1,572.6
					c3.9-0.2,7.8-0.4,11.9-0.6v52.8l-20.3,2.1L490.1,572.6z M475,627.6l-14.1,1.5l13.3-55.2c3.2-0.3,6.5-0.6,10-0.9L475,627.6z
					 M501.7,355.1v29l-80.7-7.8C420.9,376.3,449.7,355.1,501.7,355.1z M399.6,504.2h6.1c0,0-0.2,18.3,9.8,25.2
					c10,6.9,27,8.2,35.5,0.5c8.5-7.7,6.6-21.6,1.4-26.5s-12.9-9-21.4-12.8c-8.5-3.7-25.3-11.2-28.8-28.3
					c-3.5-17.1,6.6-29.6,16.5-35.1c12-6.7,34.6-6.2,48.2,2.4l0.2,26.4h-5.5c0,0,0.4-12.6-6.9-19.4c-7.3-6.8-20.9-7.4-29.3-1.6
					c-7.9,5.5-9.3,19.2,0,26.4c9.3,7.1,16.7,10.5,26.4,15.6c9.7,5.1,21.5,12.4,21.5,31.1c0,18.7-11,31.1-29.9,34.7
					c-18.8,3.6-37.2-3-43.9-7.9V504.2z M376.3,590.5c6-1,51.9-9,79.5-14c3.8-0.7,7.9-1.3,12.2-1.8l-13.6,55.2l-50.3,5.3v-14.4
					l-27.8,0.6V590.5z M381.1,709l-20.2,1.3V692l20.2-0.9V709z M443,706.3l-20.2,1.3V689l20.2-0.9V706.3z M502,702.5l-20.2,1.8
					v-18.8l20.2-1.2V702.5z M559.9,697l-20.2,1.3V680l20.2-1.5V697z M633.2,647.1c-55.5,7.4-185.5,20.5-219.5,22.5
					c-35.7,2.1-89.6,3.4-101.8,3.7v-8c12.5-0.3,65.9-1.6,101.4-3.7c34.8-2.1,170-15.7,222.5-22.9L633.2,647.1z"/>
			</g>
		</g>
	</g>
</g>
</svg>
