<?xml version="1.0" encoding="utf-8"?>
<!-- Generator: Adobe Illustrator 24.3.0, SVG Export Plug-In . SVG Version: 6.00 Build 0)  -->
<svg version="1.1" xmlns="http://www.w3.org/2000/svg" xmlns:xlink="http://www.w3.org/1999/xlink" x="0px" y="0px"
	 viewBox="0 0 1024 1024" style="enable-background:new 0 0 1024 1024;" xml:space="preserve">
<style type="text/css">
	.st0{fill:#151616;}
	.st1{fill:#FFFFFF;}
</style>
<g id="Layer_2">
	<rect class="st0" width="1024" height="1024"/>
</g>
<g id="Layer_5">
	<g>
		<g>
			<path class="st1" d="M431,615.3c24.5,3.7,34,15.3,67,6.7c33-8.7,45.3-13.1,69.8-8s59.4,15.6,73.1,1c-22.5,1.5-49-11.5-75.2-19.8
				c-26.2-8.3-47.8,5-71.2,10.3c-23.3,5.3-36.5-3.1-57.1-9.1s-48.4,3.8-69.5,12.4c-21.1,8.7-45.9,7.7-45.9,7.7s12.7,10.2,42.5,7.1
				S406.5,611.7,431,615.3z"/>
			<path class="st1" d="M494.9,340.6c3.8-4,5-11.6,2.6-15.3c-2.4-3.7-8.9-4.7-11.4,2.1c-2.3,6,0.3,11.5,3.8,17.6
				C491.8,343.5,493.5,342,494.9,340.6z"/>
			<path class="st1" d="M580.9,324.9c-3.2-14.3-16.3-14.5-16.3-14.5h-10.4v43.2c2.3,0,5.9,0,11.2,0
				C577.4,353.7,584.1,339.2,580.9,324.9z"/>
			<path class="st1" d="M289.9,603.6c18-2.1,27.2,5.1,49.7,3.8c22.4-1.3,45.3-17.3,71.9-22.7c26.7-5.3,30.2,7.5,60.2,11.3
				s45.4-15.1,72.3-14.9c26.9,0.2,49.8,14.2,63.8,19.2s25.2,5.8,39.5,3.2c14.3-2.7,17,1,32.5,1.5s30.8-12.8,30.8-12.8
				s-8.5,1.7-19.8,2c-11.3,0.3-14.3-0.7-26.7-6c-12.3-5.3-37.2,1.7-37.2,1.7c6-45.2,23-83.3,23-83.3s6.2-1.8,16.2-12.7
				c10-10.8,15.5-30.7,15.5-30.7s88.4-64.2,91.7-66.6s5.3-5.7,3.6-6.8c-1.8-1.1-4.3-2.6-9,0c-4.7,2.6-134.6,79.1-134.6,79.1
				s-36.7,9-79.8,12.5c-15,1.2-39.3,3.3-64.5,5.5v-53c68.1,0.5,104.4,21.6,107.9,30.7c0,0,10.8-5.4,23.6-30.8
				c12.8-25.3,10.7-52.3,10.7-52.3s2.7,10.7,5.6,30c2.9,19.3,3.2,27.7,3.2,27.7s17.8-19.8,42.2-26.8s46-4.4,46-4.4
				s-33.8-43.1-86.2-94.9c-52.4-51.8-84.9-62.9-84.9-62.9s10.9-26.3,4.9-45.7c-6-19.3-18.8-27.2-18.8-27.2s4.7-4.7-3-6.8
				c-3-0.8-25.3-3.6-51.4-6.5v-63.1c0-2.9-2.4-5.3-5.3-5.3c-2.9,0-5.3,2.4-5.3,5.3v8.4c-3.6,1.4-11.9,4.3-25.8,7.9
				c-19.6,5.1-38.4,2.6-38.4,2.6s10.8,15.2,37.8,19.1c13.9,2,22,2.3,26.4,2v21.9c-38.3-4.3-80-8.8-80-8.8s-2.7-0.4-3.2,1.9
				c-0.5,2.3,3.3,3.2,8,9.3c4.7,6.1,29.8,46.7-9.2,88.4l6.3-18.1l-30.2-3.6c0-6.7,0-20.5,0-25.1c0-6.1-6.1-6.4-8.6-6.3
				c-2.4,0.1-2.1,2-2.1,2v2.8v25.4l-40.8-4.8c0,0-4.1-0.2-2.1,3.2s12.4,28.6,7.3,50.9c-5.2,22.3-17.3,39.7-17.3,39.7
				s-3.5,4.2,1.2,5.2c4.7,1,39.2,5.4,39.2,5.4s6.3-29.9-0.3-61.2c0,0,14.9,25.6,8.2,73.8c-6.7,48.2-42.7,83.8-42.7,83.8
				s28.3-33.8,33.8-89.6l-37.9-6.7c0,0,2.6,38.2-13.9,69.3c-16.4,31.1-31.8,48.9-31.8,48.9s-4.3,5.2,2,5c6.3-0.2,38.9-0.2,55.3,1.9
				c16.4,2.1,25.4,4.9,25.4,4.9s5.8-2.3,15.9-5.5v27.8l-81.7,2.9c0,0-0.4,7.3,3,22.7c3.4,15.3,17.7,20.3,17.7,20.3s-2,11.7,9,32.2
				s34.3,31.2,34.3,31.2s-3.2-0.2-11.4-1.7c-8.2-1.4-22.8-8.1-47.4-0.4c-24.7,7.7-40.3,2.6-40.3,2.6
				C255.1,606.4,271.9,605.7,289.9,603.6z M371.7,569.8l-18,1.3v-18.6l18-1.1V569.8z M426.1,566l-18.2,1.3v-18.1l18.2-1.1V566z
				 M476.5,562.4l-18.1,1.3V546l18.1-1.1V562.4z M526.7,558.9l-18.2,1.3v-17.3l18.2-1.1V558.9z M585,307
				c6.8,3.5,13.3,10.7,13.2,22.7c-0.3,24.8-19,31-32.8,31c-4.8,0-8.4,0-11.2,0v12v7.2v6c0,8.4,8.6,8.8,8.6,8.8h5.5v5.3h-19.1H544
				H526v-5.4h5c0,0,7.2-0.5,7.2-8.6v-6.7c0,0,0-53.6,0-61.5s-7-7.8-7-7.8H526v-6.5h44.1C570.2,303.5,577.7,303.2,585,307z
				 M489.6,236c0.1,0,0.1,0,0.2,0c39.6,3.6,74.7,33.1,74.7,33.1l-74.9-7.2V236z M482.9,322c5.8-4.8,13.3-5,18.4-1.1s5,12.9,2,17.3
				c-2.5,3.7-9,8.8-11.2,10.4c3,4.6,9.3,12.7,14.8,19.4c3.1-4.3,4.4-6.8,5.3-8.5c1.1-2.1,1.8-4.5,1-6s-2.3-1.5-2.3-1.5h-6.3v-4.2
				h23.5v3.7c0,0-3.7-0.4-6,1.8c-2.3,2.1-3.6,5.3-8.1,12.1c-1.2,1.8-2.7,3.8-4.3,5.9c3,3.5,5.5,6.2,6.8,7.3c4.2,3.6,8.7,0,8.7,0h3.5
				v2.4c0,0-2.6,3.4-6.3,5.2c-4.4,2.3-10.9,0.9-14.7-2.6c-0.9-0.8-2.4-2.5-4.3-4.8c-3.2,3.3-6.8,6.1-10.1,8.1
				c-7.6,4.5-21.6,1.8-24.5-11.5c-2.9-13.3,6.8-21.4,11.4-24.1c0.4-0.2,0.9-0.5,1.3-0.8c-2.2-3.5-4.4-7.4-5.1-10.4
				C474.7,333,477.1,326.8,482.9,322z M467.1,434.3c3.1-0.2,6.3-0.3,9.4-0.4v54c-6.1,0.5-12.1,1-18,1.6L467.1,434.3z M451.1,490.1
				c-4.7,0.4-9.3,0.8-13.8,1.2c3.8-17.8,11.2-45.3,14-55.7c3.1-0.3,6.1-0.6,9.2-0.8C456.7,452.3,452.6,479.5,451.1,490.1z
				 M477.3,235.4v25.3L408,254C419.9,245.3,444.2,235,477.3,235.4z M403.4,368.9h4.9c0,0-0.1,15.3,7.8,21s21.6,6.8,28.4,0.4
				c6.8-6.4,5.3-18,1.1-22.1s-10.3-7.5-17.1-10.7c-6.8-3.1-20.2-9.3-23-23.6c-2.8-14.2,5.3-24.7,13.2-29.3c9.6-5.6,27.7-5.1,38.6,2
				l0.1,22h-4.4c0,0,0.4-10.5-5.5-16.2c-5.8-5.7-16.8-6.2-23.5-1.3c-6.4,4.6-7.4,16,0,22c7.4,5.9,13.3,8.7,21.1,13
				c7.8,4.3,17.2,10.3,17.2,25.9s-8.8,25.9-23.9,28.9c-15.1,3-29.8-2.5-35.1-6.6V368.9z M371.7,451.2c18.1-5.2,43.8-11.5,72.8-14.9
				c-5.6,16-11.4,43-13.9,55.6c-22.8,2-39.2,3.4-39.2,3.4l-0.1-14.1l-19.6,0.7V451.2z M315.9,537.3c-1,0-1.6,0-1.7,0l0-7
				c1.4,0,144.2,0.6,274-21.5l-1.3,7.3C464.8,536.6,332.3,537.3,315.9,537.3z"/>
			<path class="st1" d="M487.8,380.5c7.7,1,11.9-3.5,13-4.7c-5.9-7.2-12.9-16.3-12.9-16.3s-1.8-2.2-4.1-5.5c-1.9,1.7-4,3.9-5.8,7.8
				C474.7,368.8,478.9,379.3,487.8,380.5z"/>
			<polygon class="st1" points="224.5,789.4 235.8,789.4 235.8,818.2 244.1,818.2 244.1,789.4 255.4,789.4 255.4,782.7 224.5,782.7 
							"/>
			<path class="st1" d="M301,795.6c0-8-5.9-12.9-15.4-12.9h-15.4v35.5h8.2v-9.9h7.1h0.4l6.8,9.9h8.8l-8-11.4
				C298.4,804.8,301,800.9,301,795.6z M285.2,801.7h-6.7v-12.4h6.7c5,0,7.6,2.3,7.6,6.2C292.7,799.4,290.2,801.7,285.2,801.7z"/>
			<rect x="318" y="782.7" class="st1" width="8.2" height="35.5"/>
			<path class="st1" d="M356.2,782.7l-15.8,35.5h8.4l3.1-7.6h16.5l3.1,7.6h8.6l-15.9-35.5H356.2z M354.6,804.3l5.6-13.6l5.6,13.6
				H354.6z"/>
			<polygon class="st1" points="402.6,782.7 394.3,782.7 394.3,818.2 420.4,818.2 420.4,811.5 402.6,811.5 			"/>
			<polygon class="st1" points="468.4,782.7 460.2,782.7 460.2,818.2 486.2,818.2 486.2,811.5 468.4,811.5 			"/>
			<path class="st1" d="M512.7,782.7l-15.8,35.5h8.4l3.1-7.6H525l3.1,7.6h8.6l-15.9-35.5H512.7z M511.1,804.3l5.6-13.6l5.6,13.6
				H511.1z"/>
			<polygon class="st1" points="582,807.8 574.5,782.7 567.3,782.7 559.5,807.6 552,782.7 544.1,782.7 555,818.2 563.2,818.2 
				570.7,794.1 578,818.2 586.3,818.2 597.1,782.7 589.8,782.7 			"/>
			<polygon class="st1" points="628.3,798.4 618.8,782.7 610.1,782.7 623.8,805.5 623.8,818.2 632,818.2 632,805.6 645.8,782.7 
				637.7,782.7 			"/>
			<polygon class="st1" points="669.6,803.4 686.1,803.4 686.1,797 669.6,797 669.6,789.3 688.3,789.3 688.3,782.7 661.5,782.7 
				661.5,818.2 688.9,818.2 688.9,811.6 669.6,811.6 			"/>
			<path class="st1" d="M736.7,795.6c0-8-5.9-12.9-15.4-12.9h-15.4v35.5h8.2v-9.9h7.1h0.4l6.8,9.9h8.8l-8-11.4
				C734,804.8,736.7,800.9,736.7,795.6z M720.8,801.7h-6.7v-12.4h6.7c5,0,7.6,2.3,7.6,6.2C728.4,799.4,725.9,801.7,720.8,801.7z"/>
			<path class="st1" d="M759.7,792.7c0-2.2,1.9-4.1,6.7-4.1c3.1,0,6.5,0.9,9.8,2.8l2.5-6.2c-3.3-2.1-7.9-3.1-12.3-3.1
				c-10.1,0-15,5-15,11.1c0,13.2,20.6,8.6,20.6,15.3c0,2.2-2,3.8-6.8,3.8c-4.3,0-8.7-1.5-11.7-3.7l-2.8,6.2
				c3.1,2.4,8.8,4.1,14.5,4.1c10.1,0,15.1-5.1,15.1-11C780.4,794.7,759.7,799.3,759.7,792.7z"/>
			<path class="st1" d="M200,696.6l-9.6-5c-11.1-5.5-15.9-9.2-15.9-17c0-7.5,5.9-12,13.5-12c9.7,0,16.9,6.8,20.3,19.8h3.9l-1-24.8
				h-2.5l-2.4,5.6c-5.7-5-11.6-7.4-18.8-7.4c-14.7,0-25.2,10.7-25.2,25.2c0,11.6,5.7,18.7,17.3,24.7l13.2,6.6
				c10.1,5.2,13.5,9.3,13.5,16.2c0,9.3-5.9,14.1-16.7,14.1c-13.1,0-22.9-8.8-24.8-23.5H161l1.5,28.5h2.5l2.6-6.6
				c5.7,4.9,13.1,8.4,22.7,8.4c16,0,29-10.4,29-26.6C219.2,710.7,212.6,702.9,200,696.6z"/>
			<path class="st1" d="M293.7,716.8c0-18.2-13.8-31.5-31.8-31.5c-17.9,0-31.5,13.2-31.5,31.5c0,19.2,13.6,32.6,31.5,32.6
				C279.8,749.4,293.7,735.8,293.7,716.8z M261.8,742.7c-10.1,0-16-9.9-16-25.8c0-15.2,5.9-25.4,16-25.4s16.5,10.4,16.5,25.4
				C278.3,732.7,272,742.7,261.8,742.7z"/>
			<path class="st1" d="M329.9,697.5c3.8,0,5.4,4.5,9.7,4.5c3.8,0,6.6-3.2,6.6-8.1c0-4.2-3-7.2-8.2-7.2c-6.7,0-13.5,5.5-17.2,13.5
				h-0.3l-1.5-12.9l-19.5,4.2v3.8c8.4,0,9.2,1.5,9.2,20.6v13.3c0,11-0.9,12.3-8.9,12.8v4.3h32.1V742c-9.4-0.2-10.5-1.3-10.5-12.9
				v-7.1C321.4,706.5,325,697.5,329.9,697.5z"/>
			<path class="st1" d="M373.6,728.3v-41.8l-23.5,4.3v3.8c6.6,0,8.6,0.8,9.2,4.4c0.5,2,0.7,7.6,0.7,16.2v13.9
				c0,10.4-1.5,12.5-9.7,12.9v4.3H383V742C374.8,741.6,373.6,739.9,373.6,728.3z"/>
			<path class="st1" d="M356.8,664.8c0,5,3.8,9.2,8.7,9.2c5,0,8.9-4.2,8.9-9.2c0-5.2-3.9-9.3-8.9-9.3
				C360.6,655.6,356.8,659.6,356.8,664.8z"/>
			<path class="st1" d="M430.2,742v4.3H462V742c-8.3-0.5-9.1-1.7-9.1-13.6v-16.7c0-18.1-8.8-25.2-21.8-25.2
				c-8.2,0-15.2,3.5-20.2,10.2h-0.4l-1.4-10.2l-20.3,4.3v3.6c6.6,0,8.2,0.6,9.1,4.5c0.4,1.9,0.6,7.5,0.7,16.1v14.3
				c-0.1,11.1-1.2,12.3-9.5,12.9v4.2h32V742c-8-0.5-8.7-1.5-8.6-13.6v-15.6c-0.1-13,5-19.6,14.1-19.6c8.6,0,12.4,5.4,12.4,20.5v15.5
				C439.1,740.2,438,741.6,430.2,742z"/>
			<path class="st1" d="M631.9,728.4v-20.2h8.5c24.4,0,35.4-10.5,35.4-26.2c0-15.3-11.5-23.9-33.3-23.9h-35.7v4.6
				c9,0.4,10.6,2.4,10.6,13.2V729c0,10.9-1.7,12.9-11.7,13.3v4.5h41.6v-4.5C634,742.4,631.9,740.2,631.9,728.4z M631.9,666.1
				c0-1.1,0.7-2,1.9-2h7.9c12.3,0,18,6.1,18,18.8s-7,18.9-20.9,18.9h-6.8V666.1z"/>
			<path class="st1" d="M567,735.7l-2.3-0.7c-1.9,4.1-4.3,5.2-7.3,5.2c-4.7,0-9.6-3.1-15.2-10.8l12.4-20.1c2.7-4.3,4.8-5.8,10.2-5.8
				v-3.8h-21.4v3.8c4.1,0,5.7,0.9,5.7,3c0,3.3-3.8,10.3-9.9,18.5l-14.3-20.2c10.8-6.1,15-12.6,15-20.4c0-9.4-6.7-16.5-16.2-16.5
				c-11.3,0-19.1,8.2-19.1,18.4c0,6.6,2.2,12.8,6.4,19.4c-13.9,7-19,14.7-19,24.1c0,11.3,7.3,18.4,18.9,18.4
				c8.6,0,16.4-3.9,22.9-10.1c5.9,7.5,11,10.1,18,10.1C559.4,748.4,565.4,743.3,567,735.7z M523.5,674.5c4.3,0,6.5,3.7,6.5,9.3
				c0,5.7-2.7,11.2-8.3,16.3c-3.4-5.2-5.2-10.6-5.2-16C516.4,677.9,519.2,674.5,523.5,674.5z M516.3,740.6
				c-6.2,0-11.2-4.8-11.2-13.3c0-6.6,3.7-11.9,9.5-16.1l16.4,23.3C526.6,738.4,521.1,740.6,516.3,740.6z"/>
			<path class="st1" d="M723.6,690.4c5.4,0,7.9,0.6,7.9,4.1c0,2.7-1.5,7.6-4.8,15.7l-8.3,21.9h-0.8l-10.9-30c-1.2-3.5-2-6.1-2-7.7
				c0-3.1,2.1-4.1,7.3-4.1v-4.3h-30.4v4.3c5.4,0.4,6.7,1.6,10.3,10.3l19.9,48.3l-3.1,6.9c-2.2,5.3-6.1,5.5-12.1,6.6
				c-6.2,1-8.6,3.7-8.6,7.7c0,4.2,3,7.1,8,7.1c6.4,0,12.6-3.8,16.1-12.6l22-55c7-17.1,8.8-19.2,14.1-19.2v-4.3h-24.4V690.4z"/>
			<path class="st1" d="M772.5,728.9v-75.2l-22.9,4.2v3.9c6.3,0,8.2,0.8,9,4.3c0.4,2.1,0.8,7.7,0.8,16.1v47.5
				c0,10.4-1.6,12.4-9.5,12.8v4.3h31.9v-4.3C773.6,742.1,772.6,740.4,772.5,728.9z"/>
			<path class="st1" d="M835.9,712.4c3,0,3.4-0.4,3.4-2.7c0-15-7.9-23.6-22.9-23.6c-18.1,0-29.7,12.2-29.7,31.3
				c0,19.2,11.2,30.3,28.6,30.3c9.4,0,17.8-3.9,23.4-10.6l-2.9-3.6c-5.2,5-10.7,7.6-17.4,7.6c-11.4,0-16.8-9-16.8-25.1
				c0-1.3,0-2.5,0.1-3.6H835.9z M815.8,692c6.6,0,9.9,4.7,9.9,11.4c0,2.8-0.9,3.1-6.8,3.1h-16.6C804.2,696.5,809.2,692,815.8,692z"
				/>
		</g>
	</g>
</g>
</svg>
