<?xml version="1.0" encoding="utf-8"?>
<!-- Generator: Adobe Illustrator 24.3.0, SVG Export Plug-In . SVG Version: 6.00 Build 0)  -->
<svg version="1.1" id="Layer_2" xmlns="http://www.w3.org/2000/svg" xmlns:xlink="http://www.w3.org/1999/xlink" x="0px" y="0px"
	 viewBox="0 0 1536 1024" style="enable-background:new 0 0 1536 1024;" xml:space="preserve">
<style type="text/css">
	.st0{fill:#0E5BB2;}
</style>
<g>
	<path class="st0" d="M693.1,486.7c0-10.8-5.9-17.7-17.2-23.3l-8.6-4.4c-9.9-4.9-14.2-8.2-14.2-15.1c0-6.7,5.3-10.7,12.1-10.7
		c8.7,0,15.1,6,18.1,17.6h3.5l-0.9-22h-2.2l-2.1,5c-5.1-4.4-10.4-6.6-16.8-6.6c-13.1,0-22.4,9.5-22.4,22.3
		c0,10.3,5.1,16.6,15.5,21.9l11.8,5.9c9,4.7,12.1,8.3,12.1,14.4c0,8.3-5.3,12.5-14.9,12.5c-11.7,0-20.5-7.8-22.1-20.9h-3.5l1.3,25.3
		h2.2l2.3-5.9c5.1,4.3,11.7,7.5,20.3,7.5C681.5,510.3,693.1,501.1,693.1,486.7z"/>
	<path class="st0" d="M731.1,453.4c-16,0-28.1,11.7-28.1,27.9c0,17,12.1,28.9,28.1,28.9c16.1,0,28.4-12,28.4-28.9
		C759.4,465.2,747.1,453.4,731.1,453.4z M731.1,504.4c-9,0-14.2-8.8-14.2-22.9c0-13.5,5.2-22.6,14.2-22.6s14.7,9.2,14.7,22.6
		C745.7,495.5,740.2,504.4,731.1,504.4z"/>
	<path class="st0" d="M772.8,480.5v11.8c0,9.8-0.8,11-7.9,11.4v3.8h28.6v-3.8c-8.4-0.2-9.4-1.2-9.4-11.5v-6.3
		c0-13.7,3.2-21.7,7.5-21.7c3.4,0,4.8,4,8.7,4c3.4,0,5.9-2.8,5.9-7.2c0-3.7-2.7-6.4-7.3-6.4c-6,0-12.1,4.8-15.3,12h-0.3l-1.4-11.5
		l-17.4,3.7v3.4C772.2,462.2,772.8,463.6,772.8,480.5z"/>
	<path class="st0" d="M823.5,443.4c4.5,0,7.9-3.7,7.9-8.1c0-4.6-3.5-8.2-7.9-8.2c-4.4,0-7.7,3.6-7.7,8.2
		C815.7,439.7,819.1,443.4,823.5,443.4z"/>
	<path class="st0" d="M818,465.6c0.4,1.8,0.6,6.8,0.6,14.4v12.4c0,9.2-1.3,11.1-8.6,11.4v3.8h29.2v-3.8c-7.3-0.3-8.4-1.8-8.4-12.1
		v-37.1l-20.9,3.8v3.4C815.6,461.7,817.4,462.4,818,465.6z"/>
	<path class="st0" d="M881.2,503.7v3.8h28.3v-3.8c-7.4-0.4-8.1-1.5-8.1-12v-14.8c0-16.1-7.8-22.4-19.4-22.4c-7.3,0-13.6,3.1-18,9.1
		h-0.3l-1.3-9.1l-18.1,3.8v3.2c5.9,0,7.3,0.5,8.1,4c0.3,1.7,0.5,6.7,0.6,14.3v12.7c-0.1,9.8-1,10.9-8.5,11.4v3.7h28.5v-3.8
		c-7.1-0.4-7.7-1.4-7.6-12v-13.8c-0.1-11.5,4.5-17.4,12.5-17.4c7.6,0,11.1,4.8,11.1,18.2v13.7C889.1,502.1,888.1,503.4,881.2,503.7z
		"/>
	<path class="st0" d="M1070.4,429.3h-31.8v4.1c8.1,0.3,9.4,2.1,9.4,11.7v47.1c0,9.7-1.6,11.5-10.4,11.8v4h37.1v-4
		c-11.8,0-13.6-1.9-13.6-12.4v-17.9h7.5c21.7,0,31.5-9.3,31.5-23.3C1100.1,436.9,1089.8,429.3,1070.4,429.3z M1067.1,468.1h-6.1
		v-31.7c0-1,0.6-1.8,1.7-1.8h7c11,0,16,5.4,16,16.7C1085.7,462.5,1079.5,468.1,1067.1,468.1z"/>
	<path class="st0" d="M1003.1,498.1l-2.1-0.6c-1.7,3.6-3.8,4.6-6.6,4.6c-4.2,0-8.5-2.7-13.5-9.5l11-17.8c2.4-3.8,4.3-5.2,9.1-5.2
		v-3.4H982v3.4c3.6,0,5.1,0.8,5.1,2.6c0,2.9-3.4,9.2-8.8,16.5l-12.8-17.9c9.7-5.5,13.4-11.2,13.4-18.1c0-8.4-5.9-14.6-14.4-14.6
		c-10.1,0-17,7.3-17,16.4c0,5.8,2,11.4,5.7,17.2c-12.4,6.2-16.9,13-16.9,21.4c0,10,6.6,16.4,16.8,16.4c7.7,0,14.7-3.5,20.4-9
		c5.3,6.6,9.8,9,16,9C996.3,509.4,1001.6,504.9,1003.1,498.1z M964.3,443.8c3.8,0,5.8,3.3,5.8,8.3c0,5.1-2.4,9.9-7.4,14.5
		c-3-4.6-4.7-9.4-4.7-14.2C958,446.8,960.5,443.8,964.3,443.8z M957.9,502.5c-5.5,0-10-4.3-10-11.8c0-5.8,3.3-10.5,8.4-14.3
		l14.7,20.6C967.1,500.6,962.2,502.5,957.9,502.5z"/>
	<path class="st0" d="M1164.4,458v-3.8h-21.7v3.8c4.8,0,7,0.5,7,3.6c0,2.4-1.3,6.7-4.3,14L1138,495h-0.7l-9.7-26.6
		c-1.1-3.1-1.8-5.4-1.8-6.8c0-2.7,1.9-3.6,6.5-3.6v-3.8h-27.1v3.8c4.8,0.3,6,1.4,9.2,9.1l17.7,42.9l-2.8,6.2
		c-2,4.7-5.4,4.8-10.8,5.8c-5.5,0.9-7.7,3.3-7.7,6.8c0,3.7,2.7,6.3,7.1,6.3c5.7,0,11.2-3.4,14.3-11.2l19.6-48.8
		C1158,459.8,1159.6,458,1164.4,458z"/>
	<path class="st0" d="M1173.9,436.4c0.4,1.8,0.7,6.9,0.7,14.2v42.2c0,9.2-1.4,11-8.5,11.4v3.9h28.4v-3.9c-7.2-0.3-8.1-1.8-8.2-12.1
		v-66.7l-20.4,3.7v3.4C1171.5,432.5,1173.2,433.3,1173.9,436.4z"/>
	<path class="st0" d="M1209,472.3l-0.3,5.2h3.6c0.1-1.9,0.3-3.6,0.6-5.2H1209z"/>
	<path class="st0" d="M1208.7,477.4l0.3-5.2h3.9c1.6-8.9,6.1-12.9,12-12.9c5.9,0,8.8,4.2,8.8,10.1c0,2.5-0.8,2.8-6,2.8h-14.8
		c-0.3,1.6-0.5,3.3-0.6,5.2h30.5c2.7,0,3-0.3,3-2.4c0-13.3-7.1-20.9-20.4-20.9c-16.1,0-26.5,10.8-26.5,27.8
		c0,17.1,10,26.8,25.5,26.8c8.4,0,15.9-3.4,20.9-9.4l-2.6-3.2c-4.7,4.4-9.6,6.8-15.5,6.8c-10.2,0-15-7.9-15-22.2
		c0-1.1,0-2.2,0.1-3.2H1208.7z"/>
	<path class="st0" d="M500.3,442c-2.4-10.8-12.1-10.9-12.1-10.9h-7.8v32.7c1.7,0,4.4,0,8.3,0C497.6,463.8,502.7,452.8,500.3,442z"/>
	<path class="st0" d="M430.8,484c5.7,0.7,8.9-2.7,9.7-3.6c-4.4-5.5-9.6-12.3-9.6-12.3s-1.3-1.7-3.1-4.2c-1.4,1.3-3,2.9-4.3,5.9
		C421,475.2,424.2,483.2,430.8,484z"/>
	<path class="st0" d="M436.2,453.9c2.8-3,3.7-8.8,1.9-11.6s-6.6-3.6-8.5,1.6c-1.7,4.6,0.2,8.7,2.8,13.4
		C433.8,456.1,435.1,455,436.2,453.9z"/>
	<path class="st0" d="M564.8,569.9c7.3-8.2,11.3-23.2,11.3-23.2s22.4-18.8,41.6-33.2l-5.3-6.1c-29.2,17.7-71.7,43.6-71.7,43.6
		s-26.8,6.8-58.4,9.5c-11,0.9-28.8,2.5-47.2,4.1v-0.3c-1.1,0.1-2.2,0.2-3.4,0.3v-40.1c1.1,0,2.3,0,3.4,0.1v-0.1
		c47.6,0.4,74.1,15,78.5,22.3c2.7-2.1,9-8,16.2-22.3c9.6-19.2,8-39.6,8-39.6s0.6,2.4,1.5,6.9c0.2-4.3,0-6.9,0-6.9s2,8.1,4.1,22.7
		c1.6,10.8,2.1,17.1,2.3,19.6c3.7-3.8,15.3-14.6,30.2-18.9c10.4-3,20.1-3.7,26.5-3.7c0.2,0,0.5,0,0.7,0c4.5,0,7.2,0.3,7.2,0.3
		s-24.7-32.6-63.1-71.8c-38.4-39.2-62.2-47.6-62.2-47.6s8-19.9,3.6-34.6c-4.4-14.6-13.8-20.6-13.8-20.6s3.4-3.5-2.2-5.2
		c-2.2-0.6-18.5-2.7-37.6-5v-47.8c0-2.2-1.7-4-3.9-4c-2.2,0-3.9,1.8-3.9,4v6.4c-2.7,1-8.7,3.2-18.9,6c-14.3,3.9-28.1,1.9-28.1,1.9
		s7.9,11.5,27.7,14.5c10.2,1.5,16.1,1.7,19.4,1.6v16.5c-28-3.3-58.6-6.7-58.6-6.7s-2-0.3-2.4,1.4c-0.4,1.8,2.4,2.4,5.9,7
		c3.5,4.6,21.8,35.4-6.8,66.9l4.6-13.7l-22.1-2.7c0-5.1,0-15.5,0-19c0-4.6-4.5-4.9-6.3-4.8c-1.8,0.1-1.5,1.5-1.5,1.5v2.1v19.2
		l-29.9-3.7c0,0-3-0.2-1.5,2.4c1.5,2.6,9.1,21.6,5.3,38.5c-3.8,16.9-12.7,30-12.7,30s-2.6,3.2,0.9,3.9c3.4,0.8,28.7,4.1,28.7,4.1
		s4.6-22.6-0.2-46.3c0,0,10.9,19.3,6,55.8s-31.2,63.4-31.2,63.4s20.7-25.6,24.7-67.8l-27.7-5c0,0,1.9,28.9-10.2,52.5
		c-12,23.5-23.3,37-23.3,37s-3.2,4,1.5,3.8c4.6-0.2,28.5-0.2,40.5,1.4s18.6,3.7,18.6,3.7s4.3-1.7,11.6-4.1v21l-59.8,2.2
		c0,0-0.3,5.6,2.2,17.2c2.5,11.6,12.9,15.3,12.9,15.3s-1.5,8.8,6.6,24.3c8.1,15.5,25.1,23.6,25.1,23.6s-2.4-0.2-8.4-1.3
		c-6-1.1-16.7-6.1-34.7-0.3c-18.1,5.8-29.5,1.9-29.5,1.9c8.3,10.9,20.6,10.3,33.8,8.7c13.2-1.6,19.9,3.9,36.4,2.9
		c16.4-1,33.1-13.1,52.7-17.2c19.5-4,22.1,5.7,44.1,8.6c22,2.9,33.3-11.4,53-11.3c19.7,0.2,36.5,10.8,46.7,14.5
		c10.2,3.8,18.4,4.4,28.9,2.4c10.5-2,12.4,0.8,23.8,1.1c11.3,0.4,22.6-9.7,22.6-9.7s-6.2,1.3-14.5,1.5s-10.5-0.5-19.5-4.5
		c-9-4-27.2,1.3-27.2,1.3c4.4-34.2,16.8-63.1,16.8-63.1S557.5,578.1,564.8,569.9z M503.3,428.5c5.1,2.7,9.9,8.1,9.9,17.2
		c-0.2,18.7-14.2,23.5-24.5,23.5c-3.6,0-6.3,0-8.3,0v9.1v5.4v4.5c0,6.3,6.4,6.7,6.4,6.7h4.1v4h-14.3h-3.9h-13.4v-4.1h3.7
		c0,0,5.4-0.4,5.4-6.5v-5.1c0,0,0-40.6,0-46.5s-5.2-5.9-5.2-5.9h-3.9v-4.9h32.9C492.3,425.8,497.9,425.6,503.3,428.5z M432.1,374.7
		c0.1,0,0.1,0,0.2,0c1.1,0.1,2.1,0.2,3.2,0.4v-0.4c0.1,0,0.1,0,0.2,0c29,2.7,54.7,25.1,54.7,25.1l-2.7-0.3c0.2,0.2,0.3,0.3,0.3,0.3
		l-55.8-5.5V374.7z M427.2,439.8c4.3-3.6,9.9-3.8,13.7-0.8s3.7,9.7,1.5,13.1c-1.8,2.8-6.7,6.7-8.3,7.9c2.2,3.5,6.9,9.6,11,14.7
		c2.3-3.3,3.3-5.1,4-6.5c0.8-1.6,1.3-3.4,0.7-4.6s-1.7-1.1-1.7-1.1h-4.7v-3.2h17.5v2.8c0,0-2.8-0.3-4.5,1.3c-1.7,1.6-2.7,4-6.1,9.2
		c-0.9,1.4-2,2.9-3.2,4.5c2.2,2.6,4.1,4.7,5,5.6c3.1,2.7,6.5,0,6.5,0h2.6v1.8c0,0-1.9,2.5-4.7,3.9c-3.3,1.7-8.2,0.7-11-2
		c-0.7-0.6-1.8-1.9-3.2-3.7c-2.4,2.5-5.1,4.7-7.5,6.1c-5.7,3.4-16.1,1.4-18.3-8.7c-2.2-10.1,5.1-16.2,8.5-18.2
		c0.3-0.2,0.6-0.4,1-0.6c-1.7-2.6-3.3-5.6-3.8-7.9C421.1,448.1,422.9,443.5,427.2,439.8z M409,566.5l6.4-41.7c2.3-0.1,4.7-0.2,7-0.3
		v0.2c1.2-0.1,2.3-0.1,3.5-0.2v40.9c-4.4,0.4-8.8,0.8-13.2,1.2l0.1-0.3C411.6,566.3,410.3,566.4,409,566.5z M393.2,567.9
		c2.8-13.5,8.3-34.3,10.4-42.2c2.3-0.2,4.6-0.4,6.9-0.6c0,0.1-0.1,0.2-0.1,0.3c1.3-0.1,2.5-0.2,3.8-0.3c-2.9,13.3-5.8,33.9-6.9,41.9
		c-3.5,0.3-6.8,0.6-10.1,0.9c0-0.1,0.1-0.2,0.1-0.4C396,567.7,394.6,567.8,393.2,567.9z M423,374.2L423,374.2c1.2,0,2.3,0,3.5,0
		v19.2l-3.5-0.4v0.4l-51.7-5.1C380.2,381.7,398.3,373.9,423,374.2z M367.9,475.3h3.7c0,0-0.1,11.6,5.8,15.9
		c5.9,4.3,16.1,5.2,21.2,0.3c5.1-4.9,4-13.6,0.8-16.8c-3.1-3.1-7.7-5.7-12.8-8.1c-5.1-2.4-15.1-7.1-17.2-17.8
		c-2.1-10.8,4-18.7,9.8-22.1c7.2-4.2,20.6-3.9,28.8,1.5l0.1,16.7h-3.3c0,0,0.3-8-4.1-12.2s-12.5-4.7-17.5-1
		c-4.7,3.5-5.5,12.1,0,16.6c5.5,4.5,9.9,6.6,15.7,9.8s12.8,7.8,12.8,19.6c0,11.8-6.6,19.6-17.8,21.9c-11.2,2.3-22.2-1.9-26.2-5
		V475.3z M344.2,537.6c13.5-4,32.7-8.7,54.3-11.3c-0.1,0.2-0.1,0.4-0.2,0.5c1.4-0.2,2.8-0.4,4.1-0.5c-4.1,12.1-8.3,32.6-10.2,42.1
		c-16.7,1.5-28.7,2.6-28.7,2.6l0-0.4c-3,0.3-4.7,0.4-4.7,0.4l-0.1-10.5l-9.6,0.4v-0.2l-4.9,0.2V537.6z M349.2,627.4l-13.2,1V628
		l-5.2,0.4v-14.1l13.4-0.8v0.3l4.9-0.3V627.4z M389,624.5l-13.3,1v-0.3l-4.5,0.3v-13.7l13.5-0.9v0.3l4.2-0.3V624.5z M425.9,621.8
		l-13.2,1v-0.3l-3.8,0.3v-13.4l13.5-0.8v0.2l3.5-0.2V621.8z M462.7,619.1l-13.3,1v-0.2l-3.1,0.2V607l13.5-0.9v0.2l2.9-0.2V619.1z
		 M506.8,586.7c-89.4,15.5-186.5,16-198.5,16c-0.8,0-1.2,0-1.2,0l0,0c-2,0-3.5,0-4.5,0c-0.8,0-1.2,0-1.3,0l0-5.3
		c1.1,0,107.5,0.5,204.3-16.3l-0.1,0.4c0.7-0.1,1.4-0.2,2.1-0.4L506.8,586.7z"/>
	<path class="st0" d="M358.8,560.5l0.1,10.5c0,0,1.7-0.2,4.7-0.4l-0.1-10.3L358.8,560.5z"/>
	<path class="st0" d="M349.2,537.6c12.4-3.7,29.6-8.1,49.1-10.7c0.1-0.2,0.1-0.4,0.2-0.5c-21.6,2.6-40.8,7.3-54.3,11.3v23.2l4.9-0.2
		V537.6z"/>
	<path class="st0" d="M410.5,525.5c0-0.1,0.1-0.2,0.1-0.3c-2.3,0.2-4.6,0.4-6.9,0.6c-2.1,7.9-7.6,28.7-10.4,42.2
		c1.4-0.1,2.7-0.2,4.1-0.4c2.8-13.5,8.1-34,10.2-41.8C408.5,525.6,409.5,525.6,410.5,525.5z"/>
	<polygon class="st0" points="384.8,611.1 384.8,610.9 371.3,611.7 371.3,625.4 375.7,625.1 375.7,611.7 	"/>
	<polygon class="st0" points="344.2,613.7 344.2,613.4 330.8,614.3 330.8,628.3 336,628 336,614.3 	"/>
	<path class="st0" d="M487.7,399.5l-52.2-5.2v-19.2c-1.1-0.1-2.1-0.3-3.2-0.4c-0.1,0-0.1,0-0.2,0v19.6l55.8,5.5
		C488,399.8,487.9,399.7,487.7,399.5z"/>
	<path class="st0" d="M576.6,508.1c10.1-3,19.5-3.7,25.8-3.7c-6.4,0-16.1,0.7-26.5,3.7c-14.9,4.3-26.5,15.2-30.2,18.9
		c0.1,0.9,0.1,1.3,0.1,1.3S558.7,513.4,576.6,508.1z"/>
	<path class="st0" d="M431.7,524.4v40.1c1.1-0.1,2.2-0.2,3.4-0.3v-39.8C434,524.4,432.9,524.4,431.7,524.4z"/>
	<path class="st0" d="M531.4,524.3c6-12.3,7.5-25.1,7.8-32.7c-0.9-4.5-1.5-6.9-1.5-6.9s1.6,20.4-8,39.6
		c-7.2,14.3-13.5,20.3-16.2,22.3c0.2,0.3,0.4,0.7,0.5,1C514.1,547.6,522,543.5,531.4,524.3z"/>
	<path class="st0" d="M423,393.1l-47.2-4.7c8.3-6.3,24.8-13.6,47.2-14.1v0c-24.7-0.3-42.8,7.5-51.7,14.1l51.7,5.1V393.1z"/>
	<path class="st0" d="M422.4,524.7v-0.2c-2.4,0.1-4.7,0.2-7,0.3l-6.4,41.7c1.3-0.1,2.5-0.2,3.8-0.3l6.2-41.4
		C420.1,524.7,421.3,524.7,422.4,524.7z"/>
	<path class="st0" d="M505.7,581.5l0.1-0.4c-96.8,16.7-203.2,16.3-204.3,16.3l0,5.3c0.1,0,0.5,0,1.3,0c1,0,2.5,0,4.5,0l0-5.3
		C308.2,597.4,411.2,597.9,505.7,581.5z"/>
	<polygon class="st0" points="422.4,608.7 422.4,608.5 408.9,609.3 408.9,622.7 412.7,622.5 412.7,609.3 	"/>
	<polygon class="st0" points="459.8,606.3 459.8,606.1 446.3,607 446.3,620.1 449.4,619.8 449.4,607 	"/>
	<path class="st0" d="M491.2,646.6c-19.2-6.3-35,3.8-52.1,7.8s-26.7-2.4-41.8-6.9c-15.1-4.5-35.4,2.9-50.9,9.4
		c-15.5,6.6-33.6,5.8-33.6,5.8s9.3,7.7,31.1,5.3c21.8-2.4,30.7-9,48.7-6.2c17.9,2.8,24.9,11.6,49.1,5c24.2-6.6,33.2-9.9,51.1-6.1
		c17.9,3.9,43.5,11.8,53.5,0.8C529.8,662.7,510.4,652.9,491.2,646.6z"/>
	<polygon class="st0" points="671.1,560 682.6,560 682.6,588.1 687.3,588.1 687.3,560 698.8,560 698.8,556 671.1,556 	"/>
	<path class="st0" d="M743.4,567.2c0-7-5.3-11.2-14-11.2h-13v32h4.8v-9.7h8.3c0.7,0,1.4,0,2.1-0.1l7.2,9.8h5.2l-7.9-10.7
		C740.7,575.7,743.4,572.1,743.4,567.2z M729.3,574.4h-8.1V560h8.1c6.1,0,9.3,2.6,9.3,7.2C738.6,571.8,735.4,574.4,729.3,574.4z"/>
	<rect x="763.5" y="556" class="st0" width="4.8" height="32"/>
	<path class="st0" d="M800.8,556l-15.1,32h4.9l3.7-8H812l3.7,8h5l-15.2-32H800.8z M795.9,576.4l7.2-15.7l7.2,15.7H795.9z"/>
	<polygon class="st0" points="842.8,556 838,556 838,588.1 860.9,588.1 860.9,584.1 842.8,584.1 	"/>
	<polygon class="st0" points="908.8,556 904,556 904,588.1 926.9,588.1 926.9,584.1 908.8,584.1 	"/>
	<path class="st0" d="M955,556l-15.1,32h4.9l3.7-8h17.8l3.7,8h5l-15.2-32H955z M950.1,576.4l7.2-15.7l7.2,15.7H950.1z"/>
	<polygon class="st0" points="1024,582.2 1014.8,556 1010.4,556 1001,582.1 991.9,556 987,556 998.2,588.1 1003.3,588.1 
		1012.4,562.5 1021.5,588.1 1026.6,588.1 1037.7,556 1033.2,556 	"/>
	<polygon class="st0" points="1066.3,572.9 1055.6,556 1050.5,556 1063.7,576.9 1063.7,588.1 1068.5,588.1 1068.5,577 1081.7,556 
		1077,556 	"/>
	<polygon class="st0" points="1103.2,573.7 1119.9,573.7 1119.9,569.9 1103.2,569.9 1103.2,560 1122,560 1122,556 1098.4,556 
		1098.4,588.1 1122.6,588.1 1122.6,584.1 1103.2,584.1 	"/>
	<path class="st0" d="M1169.8,567.2c0-7-5.3-11.2-14-11.2h-13v32h4.8v-9.7h8.3c0.7,0,1.4,0,2.1-0.1l7.2,9.8h5.2l-7.9-10.7
		C1167.1,575.7,1169.8,572.1,1169.8,567.2z M1155.7,574.4h-8.1V560h8.1c6.1,0,9.3,2.6,9.3,7.2C1165,571.8,1161.8,574.4,1155.7,574.4
		z"/>
	<path class="st0" d="M1192.3,564.6c0-2.8,2.4-5.1,8.1-5.1c3,0,6.3,0.8,9.2,2.6l1.6-3.7c-2.8-1.8-6.8-2.8-10.7-2.8
		c-8.8,0-12.8,4.2-12.8,9.1c0,11.9,20.3,7,20.3,14.8c0,2.8-2.5,4.9-8.3,4.9c-4.3,0-8.6-1.6-11-3.7l-1.8,3.6c2.7,2.4,7.7,4,12.8,4
		c8.8,0,12.9-4.2,12.9-9.1C1212.6,567.6,1192.3,572.5,1192.3,564.6z"/>
</g>
</svg>
